<?xml version="1.0" standalone="no"?>
<!DOCTYPE svg PUBLIC "-//W3C//DTD SVG 1.1//EN" "http://www.w3.org/Graphics/SVG/1.1/DTD/svg11.dtd" >
<svg xmlns="http://www.w3.org/2000/svg">
<metadata>Generated by IcoMoon</metadata>
<defs>
<font id="elegant-font" horiz-adv-x="1024">
<font-face units-per-em="1024" ascent="960" descent="-64" />
<missing-glyph horiz-adv-x="1024" />
<glyph unicode="&#x20;" d="" horiz-adv-x="512" />
<glyph unicode="&#xe000;" d="M935.724 747.605h-52.966v52.966c0 27.542-13.065 55.437-33.898 72.739-16.949 14.124-37.429 19.421-57.909 15.183l-704.794-140.888c-47.669-1.059-86.157-40.254-86.157-88.276v-564.966c0-48.728 39.548-88.276 88.276-88.276h847.448c48.728 0 88.276 39.548 88.276 88.276v564.966c0 48.728-39.548 88.276-88.276 88.276zM798.014 853.889c12.359 2.472 22.599-2.825 28.601-8.121 12.712-10.593 20.833-28.248 20.833-45.197v-52.966h-580.855l531.421 106.284zM935.724 41.398h-847.448c-29.308 0-52.966 23.658-52.966 52.966v564.966c0 29.308 23.658 52.966 52.966 52.966v0 0h847.448c29.308 0 52.966-23.658 52.966-52.966v-88.276h-406.069c-9.887 0-17.655-7.768-17.655-17.655v-353.103c0-9.887 7.768-17.655 17.655-17.655h406.069v-88.276c0-29.308-23.658-52.966-52.966-52.966zM988.69 535.743v-317.793h-388.414v317.793h388.414zM335.448 668.157h-247.172c-4.943 0-8.828-3.884-8.828-8.828v-211.862c0-4.943 3.884-8.828 8.828-8.828s8.828 3.884 8.828 8.828v203.034h238.345c4.943 0 8.828 3.884 8.828 8.828s-3.884 8.828-8.828 8.828zM785.655 288.57c48.728 0 88.276 39.548 88.276 88.276s-39.548 88.276-88.276 88.276-88.276-39.548-88.276-88.276 39.548-88.276 88.276-88.276zM785.655 429.812c29.308 0 52.966-23.658 52.966-52.966s-23.658-52.966-52.966-52.966-52.966 23.658-52.966 52.966 23.658 52.966 52.966 52.966zM757.407 360.957c4.943 0 8.828 3.884 8.828 8.828 0 14.477 12.006 26.483 26.483 26.483 4.943 0 8.828 3.884 8.828 8.828s-3.884 8.828-8.828 8.828c-24.364 0-44.138-19.774-44.138-44.138 0-4.943 3.884-8.828 8.828-8.828z" />
<glyph unicode="&#xe001;" d="M1006.345 536.276h-406.069v406.069c0 9.887-7.768 17.655-17.655 17.655h-141.241c-9.887 0-17.655-7.768-17.655-17.655v-406.069h-406.069c-9.887 0-17.655-7.768-17.655-17.655v-141.241c0-9.887 7.768-17.655 17.655-17.655h406.069v-406.069c0-9.887 7.768-17.655 17.655-17.655h141.241c9.887 0 17.655 7.768 17.655 17.655v406.069h406.069c9.887 0 17.655 7.768 17.655 17.655v141.241c0 9.887-7.768 17.655-17.655 17.655zM988.69 395.034h-406.069c-9.887 0-17.655-7.768-17.655-17.655v-406.069h-105.931v406.069c0 9.887-7.768 17.655-17.655 17.655h-406.069v105.931h406.069c9.887 0 17.655 7.768 17.655 17.655v406.069h105.931v-406.069c0-9.887 7.768-17.655 17.655-17.655h406.069v-105.931zM526.124 901.738h-35.31c-4.943 0-8.828-3.884-8.828-8.828v-353.103c0-4.943 3.884-8.828 8.828-8.828s8.828 3.884 8.828 8.828v344.276h26.483c4.943 0 8.828 3.884 8.828 8.828s-3.884 8.828-8.828 8.828z" />
<glyph unicode="&#xe002;" d="M935.724 960h-741.517c-48.375 0-88.276-39.548-88.276-88.276v-52.966h-88.276c-9.887 0-17.655-7.768-17.655-17.655s7.768-17.655 17.655-17.655h88.276v-141.241h-88.276c-9.887 0-17.655-7.768-17.655-17.655s7.768-17.655 17.655-17.655h88.276v-141.241h-88.276c-9.887 0-17.655-7.768-17.655-17.655s7.768-17.655 17.655-17.655h88.276v-141.241h-88.276c-9.887 0-17.655-7.768-17.655-17.655s7.768-17.655 17.655-17.655h88.276v-141.241h-88.276c-9.887 0-17.655-7.768-17.655-17.655s7.768-17.655 17.655-17.655h88.276v-52.966c0-48.728 39.548-88.276 88.276-88.276h741.517c48.728 0 88.276 39.548 88.276 88.276v847.448c0 48.728-39.548 88.276-88.276 88.276zM635.586 924.69h176.552v-267.299l-78.389 52.259c-6.003 3.884-13.771 3.884-19.421 0l-78.742-52.259v267.299zM141.241 24.276v52.966h88.276c9.887 0 17.655 7.768 17.655 17.655s-7.768 17.655-17.655 17.655h-88.276v141.241h88.276c9.887 0 17.655 7.768 17.655 17.655s-7.768 17.655-17.655 17.655h-88.276v141.241h88.276c9.887 0 17.655 7.768 17.655 17.655s-7.768 17.655-17.655 17.655h-88.276v141.241h88.276c9.887 0 17.655 7.768 17.655 17.655s-7.768 17.655-17.655 17.655h-88.276v141.241h88.276c9.887 0 17.655 7.768 17.655 17.655s-7.768 17.655-17.655 17.655h-88.276v52.966c0 29.308 23.658 52.966 52.966 52.966h123.586v-953.379h-123.586c-28.954 0-52.966 23.658-52.966 52.966zM988.69 24.276c0-29.308-23.658-52.966-52.966-52.966h-582.621v953.379h247.172v-300.138c0-6.356 3.531-12.359 9.181-15.537s12.712-2.825 18.008 0.706l96.397 64.265 96.044-64.265c2.825-2.119 6.356-2.825 9.887-2.825 2.825 0 5.65 0.706 8.474 2.119 5.65 3.178 9.181 9.181 9.181 15.537v300.138h88.276c29.308 0 52.966-23.658 52.966-52.966v-847.448zM935.724 280.276c-4.943 0-8.828-3.884-8.828-8.828v-238.345h-238.345c-4.943 0-8.828-3.884-8.828-8.828s3.884-8.828 8.828-8.828h247.172c4.943 0 8.828 3.884 8.828 8.828v247.172c0 4.943-3.884 8.828-8.828 8.828z" />
<glyph unicode="&#xe003;" d="M1023.73 133.346l-141.256 741.592c-1.059 6.003-5.297 10.947-11.3 13.419-5.65 2.119-12.36 1.059-16.951-2.825l-847.534-670.965c-6.003-4.944-8.475-13.419-5.297-20.482 2.825-7.416 10.594-11.654 18.363-10.947l307.231 34.255 135.252-203.055c3.178-4.591 8.122-7.416 13.772-7.769 0.353 0 0.706 0 1.059 0 5.297 0 10.241 2.472 13.419 6.357l169.154 203.055 341.839-102.764c6.003-1.766 12.36-0.353 16.951 3.885 4.238 4.238 6.357 10.241 5.297 16.244zM776.179 778.885l-437.893-525.471c-1.059 0-2.119 0.353-2.825 0.353s-1.413 0-2.119 0l-256.732-28.604 699.569 553.722zM639.868 247.41l-161.385-193.873-126.071 188.93 489.451 587.624-192.108-576.676c-3.885-0.706-7.416-2.825-9.888-6.003zM667.412 250.235l189.636 569.26 126.424-664.255-316.060 94.994zM852.457 664.114c-4.944-1.059-8.122-5.65-7.063-10.241l84.047-448.487c0.706-4.238 4.591-7.063 8.828-7.063 0.706 0 1.059 0 1.766 0 4.944 1.059 8.122 5.65 7.063 10.241l-84.047 448.487c-1.059 4.944-5.65 8.122-10.594 7.063z" />
<glyph unicode="&#xe004;" d="M803.31 610.428c-4.943 4.943-12.712 6.709-19.068 3.884-6.709-2.825-10.946-9.181-10.946-16.243v-82.273h-193.501v193.501h82.273c9.887 0 17.655 7.768 17.655 17.655 0 5.297-2.472 10.24-6.003 13.418l-149.010 149.010c-3.178 3.178-7.768 5.297-12.359 5.297s-9.181-1.766-12.359-5.297l-150.422-150.069c-4.943-4.943-6.709-12.712-3.884-19.068 2.825-6.709 9.181-10.946 16.243-10.946h82.273v-193.854h-193.854v82.273c0 7.062-4.237 13.418-10.946 16.243s-14.124 1.059-19.068-3.884l-149.716-149.716c-7.062-7.062-7.062-18.008 0-25.070l150.069-149.716c4.943-4.943 12.712-6.709 19.068-3.884 6.709 2.825 10.946 9.181 10.946 16.243v82.273h193.854v-193.501h-82.273c-7.062 0-13.418-4.237-16.243-10.946s-1.059-14.124 3.884-19.068l149.716-149.716c3.531-3.531 8.121-5.297 12.359-5.297 4.59 0 9.181 1.766 12.359 5.297l149.716 149.716c4.943 4.943 6.709 12.712 3.884 19.068-2.825 6.709-9.181 10.946-16.243 10.946h-82.273v193.501h193.501v-82.273c0-7.062 4.237-13.418 10.946-16.243s14.124-1.059 19.068 3.884l149.716 149.716c3.178 3.178 5.297 7.768 5.297 12.359s-1.766 9.181-5.297 12.359l-149.363 150.422zM808.607 341.010v57.203c0 4.59-1.766 9.181-5.297 12.359-3.178 3.178-7.768 5.297-12.359 5.297v0h-228.811c-9.887 0-17.655-7.768-17.655-17.655v-228.811c0-4.59 1.766-9.181 5.297-12.359 3.178-3.178 7.768-5.297 12.359-5.297h57.203l-107.343-107.343-107.343 106.99h57.203c9.887 0 17.655 7.768 17.655 17.655v228.811c0 4.59-1.766 9.181-5.297 12.359-3.178 3.178-7.768 5.297-12.359 5.297h-228.811c-9.887 0-17.655-7.768-17.655-17.655v-57.203l-107.343 107.343 107.343 106.99v-57.203c0-4.59 1.766-9.181 5.297-12.359 3.178-3.178 7.768-5.297 12.359-5.297h229.164c9.887 0 17.655 7.768 17.655 17.655v229.164c0 9.887-7.768 17.655-17.655 17.655h-57.203l106.99 106.99 106.99-106.99h-57.203c-9.887 0-17.655-7.768-17.655-17.655v-229.164c0-4.59 1.766-9.181 5.297-12.359 3.178-3.178 7.768-5.297 12.359-5.297v0h228.811c9.887 0 17.655 7.768 17.655 17.655v57.203l107.343-107.343-106.99-106.637zM935.724 960h-847.448c-48.728 0-88.276-39.548-88.276-88.276v-847.448c0-48.728 39.548-88.276 88.276-88.276h847.448c48.728 0 88.276 39.548 88.276 88.276v847.448c0 48.728-39.548 88.276-88.276 88.276zM988.69 24.276c0-29.308-23.658-52.966-52.966-52.966h-847.448c-29.308 0-52.966 23.658-52.966 52.966v847.448c0 29.308 23.658 52.966 52.966 52.966h847.448c29.308 0 52.966-23.658 52.966-52.966v-847.448z" />
<glyph unicode="&#xe005;" d="M268.712 112.552h-219.63c-27.189 0-49.081-23.658-49.081-52.966v-70.621c0-29.308 21.892-52.966 49.081-52.966h219.63c27.189 0 49.081 23.658 49.081 52.966v70.621c0 29.308-21.892 52.966-49.081 52.966zM282.483-11.034c0-9.534-6.356-17.655-13.771-17.655h-219.63c-7.415 0-13.771 8.121-13.771 17.655v70.621c0 9.534 6.356 17.655 13.771 17.655h219.63c7.415 0 13.771-8.121 13.771-17.655v-70.621zM268.712 324.414h-219.63c-27.189 0-49.081-23.658-49.081-52.966v-70.621c0-29.308 21.892-52.966 49.081-52.966h219.63c27.189 0 49.081 23.658 49.081 52.966v70.621c0 29.308-21.892 52.966-49.081 52.966zM282.483 200.828c0-9.534-6.356-17.655-13.771-17.655h-219.63c-7.415 0-13.771 8.121-13.771 17.655v70.621c0 9.534 6.356 17.655 13.771 17.655h219.63c7.415 0 13.771-8.121 13.771-17.655v-70.621zM268.712 536.276h-219.63c-27.189 0-49.081-23.658-49.081-52.966v-70.621c0-29.308 21.892-52.966 49.081-52.966h219.63c27.189 0 49.081 23.658 49.081 52.966v70.621c0 29.308-21.892 52.966-49.081 52.966zM282.483 412.69c0-9.534-6.356-17.655-13.771-17.655h-219.63c-7.415 0-13.771 8.121-13.771 17.655v70.621c0 9.534 6.356 17.655 13.771 17.655h219.63c7.415 0 13.771-8.121 13.771-17.655v-70.621zM268.712 748.138h-219.63c-27.189 0-49.081-23.658-49.081-52.966v-70.621c0-29.308 21.892-52.966 49.081-52.966h219.63c27.189 0 49.081 23.658 49.081 52.966v70.621c0 29.308-21.892 52.966-49.081 52.966zM282.483 624.552c0-9.534-6.356-17.655-13.771-17.655h-219.63c-7.415 0-13.771 8.121-13.771 17.655v70.621c0 9.534 6.356 17.655 13.771 17.655h219.63c7.415 0 13.771-8.121 13.771-17.655v-70.621zM621.815 112.552h-219.63c-27.189 0-49.081-23.658-49.081-52.966v-70.621c0-29.308 21.892-52.966 49.081-52.966h219.63c27.189 0 49.081 23.658 49.081 52.966v70.621c0 29.308-21.892 52.966-49.081 52.966zM635.586-11.034c0-9.534-6.356-17.655-13.771-17.655h-219.63c-7.415 0-13.771 8.121-13.771 17.655v70.621c0 9.534 6.356 17.655 13.771 17.655h219.63c7.415 0 13.771-8.121 13.771-17.655v-70.621zM621.815 324.414h-219.63c-27.189 0-49.081-23.658-49.081-52.966v-70.621c0-29.308 21.892-52.966 49.081-52.966h219.63c27.189 0 49.081 23.658 49.081 52.966v70.621c0 29.308-21.892 52.966-49.081 52.966zM635.586 200.828c0-9.534-6.356-17.655-13.771-17.655h-219.63c-7.415 0-13.771 8.121-13.771 17.655v70.621c0 9.534 6.356 17.655 13.771 17.655h219.63c7.415 0 13.771-8.121 13.771-17.655v-70.621zM974.919 112.552h-219.63c-27.189 0-49.081-23.658-49.081-52.966v-70.621c0-29.308 21.892-52.966 49.081-52.966h219.63c27.189 0 49.081 23.658 49.081 52.966v70.621c0 29.308-21.892 52.966-49.081 52.966zM988.69-11.034c0-9.534-6.356-17.655-13.771-17.655h-219.63c-7.415 0-13.771 8.121-13.771 17.655v70.621c0 9.534 6.356 17.655 13.771 17.655h219.63c7.415 0 13.771-8.121 13.771-17.655v-70.621zM974.919 324.414h-219.63c-27.189 0-49.081-23.658-49.081-52.966v-70.621c0-29.308 21.892-52.966 49.081-52.966h219.63c27.189 0 49.081 23.658 49.081 52.966v70.621c0 29.308-21.892 52.966-49.081 52.966zM988.69 200.828c0-9.534-6.356-17.655-13.771-17.655h-219.63c-7.415 0-13.771 8.121-13.771 17.655v70.621c0 9.534 6.356 17.655 13.771 17.655h219.63c7.415 0 13.771-8.121 13.771-17.655v-70.621zM974.919 536.276h-219.63c-27.189 0-49.081-23.658-49.081-52.966v-70.621c0-29.308 21.892-52.966 49.081-52.966h219.63c27.189 0 49.081 23.658 49.081 52.966v70.621c0 29.308-21.892 52.966-49.081 52.966zM988.69 412.69c0-9.534-6.356-17.655-13.771-17.655h-219.63c-7.415 0-13.771 8.121-13.771 17.655v70.621c0 9.534 6.356 17.655 13.771 17.655h219.63c7.415 0 13.771-8.121 13.771-17.655v-70.621zM974.919 748.138h-219.63c-27.189 0-49.081-23.658-49.081-52.966v-70.621c0-29.308 21.892-52.966 49.081-52.966h219.63c27.189 0 49.081 23.658 49.081 52.966v70.621c0 29.308-21.892 52.966-49.081 52.966zM988.69 624.552c0-9.534-6.356-17.655-13.771-17.655h-219.63c-7.415 0-13.771 8.121-13.771 17.655v70.621c0 9.534 6.356 17.655 13.771 17.655h219.63c7.415 0 13.771-8.121 13.771-17.655v-70.621zM974.919 960h-219.63c-27.189 0-49.081-23.658-49.081-52.966v-70.621c0-29.308 21.892-52.966 49.081-52.966h219.63c27.189 0 49.081 23.658 49.081 52.966v70.621c0 29.308-21.892 52.966-49.081 52.966zM988.69 836.414c0-9.534-6.356-17.655-13.771-17.655h-219.63c-7.415 0-13.771 8.121-13.771 17.655v70.621c0 9.534 6.356 17.655 13.771 17.655h219.63c7.415 0 13.771-8.121 13.771-17.655v-70.621zM264.828 696.938h-211.862c-4.943 0-8.828-3.884-8.828-8.828s3.884-8.828 8.828-8.828h211.862c4.943 0 8.828 3.884 8.828 8.828s-3.884 8.828-8.828 8.828zM617.931 273.214h-211.862c-4.943 0-8.828-3.884-8.828-8.828s3.884-8.828 8.828-8.828h211.862c4.943 0 8.828 3.884 8.828 8.828s-3.884 8.828-8.828 8.828zM971.034 908.8h-211.862c-4.943 0-8.828-3.884-8.828-8.828s3.884-8.828 8.828-8.828h211.862c4.943 0 8.828 3.884 8.828 8.828s-3.884 8.828-8.828 8.828z" />
<glyph unicode="&#xe006;" d="M1019.908 529.563c-3.178 4.237-8.474 6.709-13.77 6.709h-131.348l-166.657 266.58c20.126 16.242 33.19 40.958 33.19 68.852 0 48.726-39.546 88.272-88.272 88.272s-88.272-39.546-88.272-88.272 39.546-88.272 88.272-88.272c8.121 0 15.889 1.059 23.657 3.178l156.417-250.338h-642.618l156.417 250.338c7.415-2.119 15.536-3.178 23.657-3.178 48.726 0 88.272 39.546 88.272 88.272s-39.546 88.272-88.272 88.272-88.272-39.546-88.272-88.272c0-27.894 13.064-52.61 33.19-68.852l-166.657-266.58h-131.348c-5.296 0-10.593-2.472-13.77-6.709s-4.59-9.886-3.178-15.183l141.235-564.939c2.119-7.768 9.18-13.417 17.301-13.417h706.173c8.121 0 15.183 5.649 17.301 13.417l141.235 564.939c0.706 5.296-0.353 10.946-3.884 15.183zM600.088 871.704c0 29.306 23.657 52.963 52.963 52.963s52.963-23.657 52.963-52.963-23.657-52.963-52.963-52.963-52.963 23.657-52.963 52.963zM370.582 924.667c29.306 0 52.963-23.657 52.963-52.963s-23.657-52.963-52.963-52.963-52.963 23.657-52.963 52.963 23.657 52.963 52.963 52.963zM851.133-28.667h-678.633l-132.408 529.63h943.448l-132.408-529.63zM342.335 855.815c4.943 0 8.827 3.884 8.827 8.827 0 14.477 12.005 26.482 26.482 26.482 4.943 0 8.827 3.884 8.827 8.827s-3.884 8.827-8.827 8.827c-24.363 0-44.136-19.773-44.136-44.136 0-4.943 3.884-8.827 8.827-8.827zM660.113 908.778c-24.363 0-44.136-19.773-44.136-44.136 0-4.943 3.884-8.827 8.827-8.827s8.827 3.884 8.827 8.827c0 14.477 12.005 26.482 26.482 26.482 4.943 0 8.827 3.884 8.827 8.827s-3.884 8.827-8.827 8.827zM131.895 450.472c-1.412 4.59-6.002 7.415-10.946 6.356-4.59-1.412-7.415-6.002-6.356-10.946l105.926-388.395c1.059-3.884 4.59-6.356 8.474-6.356 0.706 0 1.412 0 2.472 0.353 4.59 1.412 7.415 6.002 6.356 10.946l-105.926 388.042zM785.812 62.076c-1.412-4.59 1.412-9.533 6.356-10.946 0.706-0.353 1.412-0.353 2.472-0.353 3.884 0 7.415 2.472 8.474 6.356l105.926 388.395c1.412 4.59-1.412 9.533-6.356 10.946-4.59 1.412-9.533-1.412-10.946-6.356l-105.926-388.042zM273.13 450.472c-1.412 4.59-6.002 7.415-10.946 6.356-4.59-1.412-7.415-6.002-6.356-10.946l105.926-388.395c1.059-3.884 4.59-6.356 8.474-6.356 0.706 0 1.412 0 2.472 0.353 4.59 1.412 7.415 6.002 6.356 10.946l-105.926 388.042zM761.449 456.474c-4.59 1.412-9.533-1.412-10.946-6.356l-105.926-388.395c-1.412-4.59 1.412-9.533 6.356-10.946 0.706-0.353 1.412-0.353 2.472-0.353 3.884 0 7.415 2.472 8.474 6.356l105.926 388.395c1.059 5.296-1.765 9.886-6.356 11.299z" />
<glyph unicode="&#xe007;" d="M971.034 642.207h-19.421v88.276c0 48.728-39.548 88.276-88.276 88.276h-775.062c-48.728 0-88.276-39.548-88.276-88.276v-564.966c0-48.728 39.548-88.276 88.276-88.276h775.062c48.728 0 88.276 39.548 88.276 88.276v88.276h19.421c29.308 0 52.966 23.658 52.966 52.966v282.483c0 29.308-23.658 52.966-52.966 52.966zM916.303 165.517c0-29.308-23.658-52.966-52.966-52.966h-775.062c-29.308 0-52.966 23.658-52.966 52.966v564.966c0 29.308 23.658 52.966 52.966 52.966h775.062c29.308 0 52.966-23.658 52.966-52.966v-564.966zM988.69 306.759c0-9.887-7.768-17.655-17.655-17.655h-19.421v317.793h19.421c9.887 0 17.655-7.768 17.655-17.655v-282.483zM269.771 748.138h-151.128c-26.483 0-48.022-23.658-48.022-52.966v-494.345c0-29.308 21.539-52.966 48.022-52.966h151.481c26.483 0 48.022 23.658 48.022 52.966v494.345c-0.353 29.308-21.892 52.966-48.375 52.966zM282.483 200.828c0-9.534-5.65-17.655-12.712-17.655h-151.128c-6.709 0-12.712 8.121-12.712 17.655v494.345c0 9.534 5.65 17.655 12.712 17.655h151.481c6.709 0 12.712-8.121 12.712-17.655v-494.345h-0.353zM137.71 704c-4.943 0-8.828-3.884-8.828-8.828v-494.345c0-4.943 3.884-8.828 8.828-8.828s8.828 3.884 8.828 8.828v494.345c0 4.943-3.884 8.828-8.828 8.828z" />
<glyph unicode="&#xe008;" d="M971.034 642.207h-19.421v88.276c0 48.728-39.548 88.276-88.276 88.276h-775.062c-48.728 0-88.276-39.548-88.276-88.276v-564.966c0-48.728 39.548-88.276 88.276-88.276h775.062c48.728 0 88.276 39.548 88.276 88.276v88.276h19.421c29.308 0 52.966 23.658 52.966 52.966v282.483c0 29.308-23.658 52.966-52.966 52.966zM916.303 165.517c0-29.308-23.658-52.966-52.966-52.966h-775.062c-29.308 0-52.966 23.658-52.966 52.966v564.966c0 29.308 23.658 52.966 52.966 52.966h775.062c29.308 0 52.966-23.658 52.966-52.966v-564.966zM988.69 306.759c0-9.887-7.768-17.655-17.655-17.655h-19.421v317.793h19.421c9.887 0 17.655-7.768 17.655-17.655v-282.483zM269.771 748.138h-151.128c-26.483 0-48.022-23.658-48.022-52.966v-494.345c0-29.308 21.539-52.966 48.022-52.966h151.481c26.483 0 48.022 23.658 48.022 52.966v494.345c-0.353 29.308-21.892 52.966-48.375 52.966zM282.483 200.828c0-9.534-5.65-17.655-12.712-17.655h-151.128c-6.709 0-12.712 8.121-12.712 17.655v494.345c0 9.534 5.65 17.655 12.712 17.655h151.481c6.709 0 12.712-8.121 12.712-17.655v-494.345h-0.353zM552.254 748.138h-151.481c-26.483 0-48.022-23.658-48.022-52.966v-494.345c0-29.308 21.539-52.966 48.022-52.966h151.481c26.483 0 48.022 23.658 48.022 52.966v494.345c0 29.308-21.539 52.966-48.022 52.966zM564.966 200.828c0-9.534-5.65-17.655-12.712-17.655h-151.481c-6.709 0-12.712 8.121-12.712 17.655v494.345c0 9.534 5.65 17.655 12.712 17.655h151.481c6.709 0 12.712-8.121 12.712-17.655v-494.345zM834.737 748.138h-151.481c-26.483 0-48.022-23.658-48.022-52.966v-494.345c0-29.308 21.539-52.966 48.022-52.966h151.481c26.483 0 48.022 23.658 48.022 52.966v494.345c0 29.308-21.539 52.966-48.022 52.966zM847.448 200.828c0-9.534-5.65-17.655-12.712-17.655h-151.481c-6.709 0-12.712 8.121-12.712 17.655v494.345c0 9.534 5.65 17.655 12.712 17.655h151.481c6.709 0 12.712-8.121 12.712-17.655v-494.345zM137.71 704c-4.943 0-8.828-3.884-8.828-8.828v-494.345c0-4.943 3.884-8.828 8.828-8.828s8.828 3.884 8.828 8.828v494.345c0 4.943-3.884 8.828-8.828 8.828zM420.193 704c-4.943 0-8.828-3.884-8.828-8.828v-494.345c0-4.943 3.884-8.828 8.828-8.828s8.828 3.884 8.828 8.828v494.345c0 4.943-3.884 8.828-8.828 8.828zM702.676 704c-4.943 0-8.828-3.884-8.828-8.828v-494.345c0-4.943 3.884-8.828 8.828-8.828s8.828 3.884 8.828 8.828v494.345c0 4.943-3.884 8.828-8.828 8.828z" />
<glyph unicode="&#xe009;" d="M1006.242 465.826h-123.544v123.544c0 9.883-7.766 17.649-17.649 17.649s-17.649-7.766-17.649-17.649v-123.544h-123.544c-9.883 0-17.649-7.766-17.649-17.649s7.766-17.649 17.649-17.649h123.544v-123.544c0-9.883 7.766-17.649 17.649-17.649s17.649 7.766 17.649 17.649v123.544h123.544c9.883 0 17.649 7.766 17.649 17.649s-8.119 17.649-17.649 17.649zM422.41 949.058c-2.471 6.707-9.178 10.942-16.237 10.942s-13.766-4.589-16.59-11.295l-388.28-988.349c-3.53-9.178 1.059-19.414 9.883-22.944 9.178-3.53 19.414 1.059 22.944 9.883l134.133 341.686h475.113l134.133-341.686c2.824-7.060 9.531-11.295 16.59-11.295 2.118 0 4.236 0.353 6.354 1.059 9.178 3.53 13.413 13.766 9.883 22.944l-387.927 989.055zM182.383 324.633l223.79 569.713 223.79-569.713h-447.581zM398.054 765.86l-150.723-383.338c-1.765-4.589 0.353-9.531 4.942-11.295 1.059-0.353 2.118-0.706 3.177-0.706 3.53 0 6.707 2.118 8.119 5.648l150.723 383.338c1.765 4.589-0.353 9.531-4.942 11.295-4.589 2.118-9.531-0.353-11.295-4.942zM202.15 243.447c-4.589 1.765-9.531-0.353-11.295-4.942l-110.483-280.973c-1.765-4.589 0.353-9.531 4.942-11.295 1.059-0.353 2.118-0.706 3.177-0.706 3.53 0 6.707 2.118 8.119 5.648l110.483 280.973c1.765 4.236-0.706 9.531-4.942 11.295z" />
<glyph unicode="&#xe00a;" d="M520.81 889.355c0 4.945-3.885 8.831-8.831 8.831-33.91 0-61.814-27.905-61.814-61.814 0-4.945 3.885-8.831 8.831-8.831s8.831 3.885 8.831 8.831c0 24.373 19.781 44.153 44.153 44.153 4.945 0 8.831 3.885 8.831 8.831zM984.595 316.424l-105.261 175.2c-2.826 4.945-8.477 8.124-14.129 8.124s-11.303-3.179-14.129-8.124l-105.968-176.613c-3.179-4.945-3.179-11.303-0.353-16.602s8.477-8.477 14.482-8.477h88.306c-3.532-185.796-69.232-200.985-158.598-221.825-50.864-11.656-107.734-24.726-158.951-70.645v644.636h88.306c9.89 0 17.661 7.771 17.661 17.661s-7.771 17.661-17.661 17.661h-88.306v36.735c59.695 8.477 105.968 60.048 105.968 122.216 0 68.172-55.456 123.629-123.629 123.629s-123.629-55.456-123.629-123.629c0-62.168 46.273-113.739 105.968-122.216v-36.735h-88.306c-9.89 0-17.661-7.771-17.661-17.661s7.771-17.661 17.661-17.661h88.306v-644.283c-51.218 45.919-108.087 58.989-158.951 70.645-89.719 20.84-155.066 35.676-158.598 221.825h88.306c9.184 0 16.602 7.418 16.602 16.602 0 3.532-1.060 7.065-3.179 9.537l-105.968 175.2c-2.826 4.945-8.477 8.124-14.129 8.124s-11.303-3.179-14.129-8.124l-105.968-176.613c-3.179-4.945-3.179-11.303-0.353-16.602s8.477-8.477 14.482-8.477h88.66c4.239-214.055 92.545-234.542 186.15-256.088 58.635-13.423 119.743-27.552 170.961-91.485v0l0.353-0.353c0.706-0.706 1.413-1.413 2.119-2.119v0 0c0.706-0.706 1.413-1.060 2.119-1.413 0.353 0 0.353-0.353 0.706-0.353 0.706-0.353 1.413-0.706 2.473-1.060h0.353c0.706-0.353 1.413-0.353 2.119-0.706 0.353 0 0.353 0 0.706 0 0.706 0 1.766-0.353 2.473-0.353v0 0 0 0c0.706 0 1.766 0 2.473 0.353 0.353 0 0.353 0 0.706 0 0.706 0 1.766 0.353 2.473 0.706v0 0c0.706 0.353 1.413 0.706 2.119 1.060 0.353 0 0.353 0.353 0.706 0.353 0.706 0.353 1.060 0.706 1.766 1.060 0 0 0.353 0 0.353 0.353 0.706 0.353 1.413 1.060 1.766 1.766l0.353 0.353c0.353 0.353 0.706 0.706 0.706 0.706 51.218 63.934 111.972 78.063 170.961 91.485 93.605 21.547 181.911 42.034 186.15 256.088h88.66c9.184 0 16.602 7.418 16.602 16.602 0 3.532-1.060 6.711-3.179 9.537zM423.673 836.371c0 48.745 39.561 88.306 88.306 88.306s88.306-39.561 88.306-88.306-39.561-88.306-88.306-88.306-88.306 39.561-88.306 88.306zM158.754 451.356l77.003-128.221h-70.645c-1.766 0.706-3.885 1.060-6.358 1.060s-4.239-0.353-6.358-1.060h-70.645l77.003 128.221zM871.563 323.135c-1.766 0.706-3.885 1.060-6.358 1.060s-4.239-0.353-6.358-1.060h-70.645l77.003 128.221 77.003-128.221h-70.645zM166.172 393.78c2.473 4.239 1.413 9.537-2.826 12.010s-9.537 1.413-12.010-2.826l-35.323-56.516c-2.473-4.239-1.413-9.537 2.826-12.010 1.413-1.060 3.179-1.413 4.592-1.413 2.826 0 5.652 1.413 7.418 4.239l35.323 56.516zM857.787 403.317l-35.323-56.516c-2.473-4.239-1.413-9.537 2.826-12.010 1.413-1.060 3.179-1.413 4.592-1.413 2.826 0 5.652 1.413 7.418 4.239l35.323 56.516c2.473 4.239 1.413 9.537-2.826 12.010-3.885 2.473-9.537 1.060-12.010-2.826z" />
<glyph unicode="&#xe00b;" d="M512 783.448c9.887 0 17.655 7.768 17.655 17.655v141.241c0 9.887-7.768 17.655-17.655 17.655s-17.655-7.768-17.655-17.655v-141.241c0-9.887 7.768-17.655 17.655-17.655zM512 112.552c-9.887 0-17.655-7.768-17.655-17.655v-141.241c0-9.887 7.768-17.655 17.655-17.655s17.655 7.768 17.655 17.655v141.241c0 9.887-7.768 17.655-17.655 17.655zM1006.345 465.655h-141.241c-9.887 0-17.655-7.768-17.655-17.655s7.768-17.655 17.655-17.655h141.241c9.887 0 17.655 7.768 17.655 17.655s-7.768 17.655-17.655 17.655zM176.552 448c0 9.887-7.768 17.655-17.655 17.655h-141.241c-9.887 0-17.655-7.768-17.655-17.655s7.768-17.655 17.655-17.655h141.241c9.887 0 17.655 7.768 17.655 17.655zM774.003 210.714c-7.062 7.062-18.008 7.062-25.070 0s-7.062-18.008 0-25.070l99.928-99.928c3.531-3.531 8.121-5.297 12.359-5.297s9.181 1.766 12.359 5.297c7.062 7.062 7.062 18.008 0 25.070l-99.575 99.928zM249.997 685.286c3.531-3.531 8.121-5.297 12.359-5.297s9.181 1.766 12.359 5.297c7.062 7.062 7.062 18.008 0 25.070l-99.928 99.575c-7.062 7.062-18.008 7.062-25.070 0s-7.062-18.008 0-25.070l100.281-99.575zM249.997 210.714l-99.928-99.928c-7.062-7.062-7.062-18.008 0-25.070 3.531-3.531 8.121-5.297 12.359-5.297 4.59 0 9.181 1.766 12.359 5.297l99.928 99.928c7.062 7.062 7.062 18.008 0 25.070-6.709 7.062-18.008 7.062-24.717 0zM761.644 679.989c4.59 0 9.181 1.766 12.359 5.297l99.928 99.928c7.062 7.062 7.062 18.008 0 25.070s-18.008 7.062-25.070 0l-99.928-99.928c-7.062-7.062-7.062-18.008 0-25.070 3.884-3.531 8.121-5.297 12.712-5.297zM512 712.828c-146.185 0-264.828-118.643-264.828-264.828s118.643-264.828 264.828-264.828 264.828 118.643 264.828 264.828-118.643 264.828-264.828 264.828zM512 218.483c-126.411 0-229.517 103.106-229.517 229.517s103.106 229.517 229.517 229.517 229.517-103.106 229.517-229.517-103.106-229.517-229.517-229.517zM526.124 636.91c-111.934 0-203.034-91.101-203.034-203.034 0-4.943 3.884-8.828 8.828-8.828s8.828 3.884 8.828 8.828c0 102.047 83.332 185.379 185.379 185.379 4.943 0 8.828 3.884 8.828 8.828s-3.884 8.828-8.828 8.828z" />
<glyph unicode="&#xe00c;" d="M1017.93 532.039l-494.345 423.724c-6.709 5.65-16.243 5.65-22.952 0l-494.345-423.724c-5.65-4.943-7.768-12.712-4.943-19.421s8.828-11.652 16.243-11.652h123.586v-476.69c0-1.412 0-2.472 0.353-3.884 11.652-52.966 44.491-84.392 87.923-84.392h141.241c9.887 0 17.655 7.768 17.655 17.655v277.892c7.768 12.359 42.372 57.556 123.586 57.556 81.567 0 115.465-45.197 123.586-57.556v-277.892c0-9.887 7.768-17.655 17.655-17.655h141.241c48.728 0 88.276 39.548 88.276 88.276v476.69h123.586c7.415 0 14.124 4.59 16.596 11.652s0.353 14.477-4.943 19.421zM865.036 536.276c-9.887 0-17.655-7.768-17.655-17.655v-494.345c0-29.308-23.658-52.966-52.966-52.966h-123.586v264.828c0 2.825-0.706 5.297-1.766 7.768-1.766 3.531-41.666 80.508-157.131 80.508s-155.366-76.977-157.131-80.508c-1.059-2.472-1.766-5.297-1.766-7.768v-264.828h-123.586c-35.663 0-48.728 37.076-52.966 55.084v492.226c0 9.887-7.768 17.655-17.655 17.655h-93.572l446.676 382.764 446.676-382.764h-93.572zM423.657 624.552c0-48.728 39.548-88.276 88.276-88.276s88.276 39.548 88.276 88.276-39.548 88.276-88.276 88.276-88.276-39.548-88.276-88.276zM564.898 624.552c0-29.308-23.658-52.966-52.966-52.966s-52.966 23.658-52.966 52.966 23.658 52.966 52.966 52.966 52.966-23.658 52.966-52.966zM474.857 617.49c0-4.943 3.884-8.828 8.828-8.828s8.828 3.884 8.828 8.828c0 14.477 12.006 26.483 26.483 26.483 4.943 0 8.828 3.884 8.828 8.828s-3.884 8.828-8.828 8.828c-24.364 0-44.138-19.774-44.138-44.138z" />
<glyph unicode="&#xe00d;" d="M325.208 730.483l58.262 58.262c4.943 4.943 6.709 12.712 3.884 19.068-2.825 6.709-9.181 10.946-16.243 10.946h-212.215c-9.887 0-17.655-7.768-17.655-17.655v-211.862c0-7.062 4.237-13.418 10.946-16.243s14.124-1.059 19.068 3.884l58.262 57.909 128.883-128.883c3.531-3.531 8.121-5.297 12.359-5.297s9.181 1.766 12.359 5.297l70.621 70.621c7.062 7.062 7.062 18.008 0 25.070l-128.53 128.883zM370.759 543.691l-128.883 128.53c-3.531 3.531-8.121 5.297-12.359 5.297s-9.181-1.766-12.359-5.297l-40.607-40.254v151.481h151.481l-40.254-40.607c-7.062-7.062-7.062-18.008 0-25.070l128.883-128.883-45.903-45.197zM864.75 818.759h-211.862c-7.062 0-13.418-4.237-16.243-10.946s-1.059-14.124 3.884-19.068l58.262-58.262-128.53-128.883c-7.062-7.062-6.709-18.008 0-25.070l70.621-70.621c3.178-3.178 7.768-5.297 12.359-5.297v0c4.59 0 9.181 1.766 12.359 5.297l128.883 128.883 58.262-58.262c4.943-4.943 12.712-6.709 19.068-3.884 6.709 2.825 10.946 9.181 10.946 16.243v212.215c-0.353 9.887-8.121 17.655-18.008 17.655zM847.095 631.967l-40.607 40.607c-3.178 3.178-7.768 5.297-12.359 5.297v0c-4.59 0-9.181-1.766-12.359-5.297l-128.53-128.883-45.55 45.55 128.53 128.883c7.062 7.062 6.709 18.008 0 25.070l-40.607 40.254h151.481v-151.481zM383.117 389.738c-7.062 7.062-18.008 7.062-25.070 0l-128.53-128.53-58.262 58.262c-4.943 4.943-12.712 6.709-19.068 3.884-6.709-2.825-10.946-9.181-10.946-16.243v-211.862c0-9.887 7.768-17.655 17.655-17.655h211.862c9.887 0 17.655 7.768 17.655 17.655 0 5.297-2.472 10.24-6.003 13.418l-57.203 56.85 128.883 128.883c7.062 7.062 7.062 18.008 0 25.070l-70.974 70.268zM287.779 177.876c-7.062-7.062-7.062-18.008 0-25.070l40.254-40.254h-151.481v151.481l40.607-40.607c7.062-7.062 18.008-7.062 25.070 0l128.883 128.883 45.55-45.55-128.883-128.883zM871.812 323.001c-6.709 2.825-14.124 1.059-19.068-3.884l-58.262-57.909-128.53 128.883c-3.178 3.178-7.768 5.297-12.359 5.297v0c-4.59 0-9.181-1.766-12.359-5.297l-70.621-70.621c-7.062-7.062-7.062-18.008 0-25.070l128.53-128.883-58.262-58.262c-4.943-4.943-6.709-12.712-3.884-19.068 2.825-6.709 9.181-10.946 16.243-10.946h211.862c9.887 0 17.655 7.768 17.655 17.655v211.862c-0.353 7.062-4.59 13.418-10.946 16.243zM847.095 112.552h-151.481l40.607 40.607c7.062 7.062 7.062 18.008 0 25.070l-128.53 128.53 45.55 45.55 128.53-128.883c3.178-3.178 7.768-5.297 12.359-5.297v0c4.59 0 9.181 1.766 12.359 5.297l40.607 40.607v-151.481zM935.724 960h-847.448c-48.728 0-88.276-39.548-88.276-88.276v-847.448c0-48.728 39.548-88.276 88.276-88.276h847.448c48.728 0 88.276 39.548 88.276 88.276v847.448c0 48.728-39.548 88.276-88.276 88.276zM988.69 24.276c0-29.308-23.658-52.966-52.966-52.966h-847.448c-29.308 0-52.966 23.658-52.966 52.966v847.448c0 29.308 23.658 52.966 52.966 52.966h847.448c29.308 0 52.966-23.658 52.966-52.966v-847.448z" />
<glyph unicode="&#xe00e;" d="M448.088 746.726c-6.709 2.825-14.124 1.059-19.068-3.884l-58.262-57.909-128.883 128.53c-7.062 7.062-18.008 7.062-25.070 0l-70.621-70.621c-7.062-7.062-7.062-18.008 0-25.070l128.883-128.53-58.262-58.262c-4.943-4.943-6.709-12.712-3.884-19.068 2.825-6.709 9.181-10.946 16.243-10.946h211.862c9.887 0 17.655 7.768 17.655 17.655v211.862c0.353 7.062-3.884 13.418-10.593 16.243zM423.724 536.276h-151.481l40.607 40.607c7.062 7.062 7.062 18.008 0 25.070l-128.883 128.53 45.55 45.55 128.883-128.883c7.062-7.062 18.008-7.062 25.070 0l40.254 40.607v-151.481zM806.841 813.462c-3.178 3.178-7.768 5.297-12.359 5.297v0c-4.59 0-9.181-1.766-12.359-5.297l-128.883-128.53-58.262 58.262c-4.943 4.943-12.712 6.709-19.068 3.884-6.709-2.825-10.946-9.181-10.946-16.243v-211.862c0-9.887 7.768-17.655 17.655-17.655h211.862c9.887 0 17.655 7.768 17.655 17.655 0 5.297-2.472 10.24-6.003 13.418l-57.203 56.85 128.53 128.883c7.062 7.062 6.709 18.008 0 25.070l-70.621 70.268zM711.503 601.6c-7.062-7.062-6.709-18.008 0-25.070l40.607-40.607h-151.834v151.834l40.607-40.607c3.178-3.178 7.768-5.297 12.359-5.297v0c4.59 0 9.181 1.766 12.359 5.297l128.883 128.883 45.55-45.55-128.53-128.883zM441.379 395.034h-211.862c-7.062 0-13.418-4.237-16.243-10.946s-1.059-14.124 3.884-19.068l57.909-58.262-128.883-128.883c-7.062-7.062-7.062-18.008 0-25.070l70.621-70.621c3.531-3.531 8.121-5.297 12.359-5.297s9.181 1.766 12.359 5.297l128.883 128.883 58.262-58.262c4.943-4.943 12.712-6.709 19.068-3.884 6.709 2.825 10.946 9.181 10.946 16.243v211.862c0.353 10.24-7.415 18.008-17.302 18.008zM423.724 208.243l-40.607 40.607c-7.062 7.062-18.008 7.062-25.070 0l-128.53-128.883-45.55 45.55 128.883 128.883c7.062 7.062 7.062 18.008 0 25.070l-40.607 40.254h151.481v-151.481zM748.932 306.759l58.262 58.262c4.943 4.943 6.709 12.712 3.884 19.068-2.825 6.709-9.181 10.946-16.243 10.946h-211.862c-9.887 0-17.655-7.768-17.655-17.655v-211.862c0-7.062 4.237-13.418 10.946-16.243s14.124-1.059 19.068 3.884l58.262 58.262 128.53-128.883c3.178-3.178 7.768-5.297 12.359-5.297v0c4.59 0 9.181 1.766 12.359 5.297l70.621 70.621c7.062 7.062 7.062 18.008 0 25.070l-128.53 128.53zM794.483 119.967l-128.53 128.883c-3.178 3.178-7.768 5.297-12.359 5.297v0c-4.59 0-9.181-1.766-12.359-5.297l-40.96-40.607v151.481h151.481l-40.607-40.607c-7.062-7.062-7.062-18.008 0-25.070l128.53-128.883-45.197-45.197zM935.724 960h-847.448c-48.728 0-88.276-39.548-88.276-88.276v-847.448c0-48.728 39.548-88.276 88.276-88.276h847.448c48.728 0 88.276 39.548 88.276 88.276v847.448c0 48.728-39.548 88.276-88.276 88.276zM988.69 24.276c0-29.308-23.658-52.966-52.966-52.966h-847.448c-29.308 0-52.966 23.658-52.966 52.966v847.448c0 29.308 23.658 52.966 52.966 52.966h847.448c29.308 0 52.966-23.658 52.966-52.966v-847.448z" />
<glyph unicode="&#xe00f;" d="M1011.822 336.988c-25.061-113.308-88.951-215.672-179.315-288.387-90.716-72.361-204.377-112.602-320.507-112.602s-229.791 39.887-320.507 112.602-154.254 175.079-179.315 288.387-10.59 232.968 40.594 337.097c51.182 104.13 137.663 188.493 242.852 237.556 8.824 4.237 19.414 0.353 23.296-8.471 4.237-8.824 0.353-19.414-8.471-23.296-204.024-95.306-312.742-315.213-263.678-535.12s240.028-373.455 465.231-373.455 416.519 153.546 465.231 373.455c48.712 219.907-59.655 439.815-263.677 535.12-8.824 4.237-12.708 14.472-8.471 23.296s14.472 12.708 23.296 8.471c105.189-49.065 191.316-133.428 242.852-237.556 51.182-104.128 65.653-223.789 40.592-337.097zM423.755 585.134v286.621c0 48.712 39.533 88.245 88.245 88.245s88.245-39.534 88.245-88.245v-286.621c0-48.712-39.534-88.245-88.245-88.245s-88.245 39.533-88.245 88.245zM459.053 584.781c0-29.298 23.649-52.947 52.947-52.947s52.947 23.649 52.947 52.947v286.621c0 29.298-23.649 52.947-52.947 52.947s-52.947-23.649-52.947-52.947v-286.621zM490.821 580.191c4.941 0 8.824 4.237 8.824 8.824v282.386c0 4.941-3.884 8.824-8.824 8.824s-8.824-3.882-8.824-8.824v-282.385c0-4.943 3.884-8.826 8.824-8.826z" />
<glyph unicode="&#xe010;" d="M511.647 571.501c-68.102 0-123.501-55.399-123.501-123.501s55.399-123.501 123.501-123.501 123.501 55.399 123.501 123.501-55.399 123.501-123.501 123.501zM511.647 359.785c-48.695 0-88.215 39.52-88.215 88.215s39.52 88.215 88.215 88.215 88.215-39.52 88.215-88.215-39.52-88.215-88.215-88.215zM511.647 509.751c-33.875 0-61.751-27.876-61.751-61.751 0-4.94 3.881-8.822 8.822-8.822s8.822 3.881 8.822 8.822c0 24.347 19.76 44.108 44.108 44.108 4.94 0 8.822 3.881 8.822 8.822s-3.881 8.822-8.822 8.822zM1011.297 495.989l-65.632 21.524c-4.587 29.64-12.35 58.928-23.289 87.156l45.872 51.165c4.94 5.646 5.999 14.114 2.117 20.466l-31.405 54.34c-3.881 6.704-11.292 9.88-19.054 8.469l-67.396-14.114c-19.054 23.289-40.579 44.813-63.868 63.515l14.114 67.396c1.411 7.41-1.764 15.173-8.469 19.054l-53.988 31.757c-6.704 3.881-14.82 2.823-20.466-2.117l-51.165-45.872c-28.229 10.586-57.516 18.349-87.156 23.289l-21.524 65.632c-2.47 7.057-9.527 11.997-16.937 11.997h-62.809c-7.763 0-14.467-4.94-16.937-11.997l-21.172-65.632c-29.64-4.587-58.928-12.35-87.156-23.289l-51.518 45.872c-5.646 4.94-14.114 5.999-20.466 2.117l-54.34-31.405c-6.704-3.881-9.88-11.292-8.469-19.054l14.114-67.396c-23.289-19.054-44.813-40.579-63.515-63.868l-67.396 14.114c-7.41 1.411-15.173-1.764-19.054-8.469l-31.405-53.988c-3.881-6.704-2.823-14.82 2.117-20.466l45.872-51.165c-10.586-28.229-18.349-57.516-23.289-87.509l-65.632-21.524c-7.057-2.117-11.997-8.822-11.997-16.584v-62.809c0-7.763 4.94-14.467 11.997-16.937l65.632-21.524c4.587-29.64 12.703-58.928 23.289-87.156l-45.872-51.165c-4.94-5.646-5.999-14.114-2.117-20.466l31.405-54.34c3.881-6.704 11.292-9.88 19.054-8.469l67.396 14.114c19.054-23.289 40.579-44.813 63.868-63.515l-14.114-67.396c-1.411-7.41 1.764-15.173 8.469-19.054l54.34-31.405c6.704-3.881 14.82-2.823 20.466 2.117l51.165 45.872c28.229-10.586 57.516-18.349 87.509-23.289l21.524-65.632c2.47-7.41 9.174-11.997 16.937-11.997h62.809c7.763 0 14.467 4.94 16.937 11.997l21.524 65.632c29.64 4.587 58.928 12.35 87.156 23.289l51.165-45.872c5.646-4.94 14.114-5.999 20.466-2.117l54.34 31.405c6.704 3.881 9.88 11.292 8.469 19.054l-14.114 67.396c23.289 19.054 44.813 40.579 63.515 63.868l67.396-14.114c7.41-1.411 15.173 1.764 19.054 8.469l31.405 54.34c3.881 6.704 2.823 14.82-2.117 20.466l-45.872 51.165c10.586 28.229 18.349 57.516 23.289 87.156l65.632 21.524c7.41 2.47 11.997 9.174 11.997 16.937v62.809c-0.706 7.41-5.646 14.114-12.703 16.232zM988.008 429.298l-58.222-19.054c-8.822 0-16.232-6.704-17.29-15.526-4.587-34.933-13.409-69.161-26.817-101.624-3.176-8.116-0.353-16.937 7.057-21.524l40.932-45.872-18.702-32.11-59.986 12.703c-7.763 4.234-17.29 2.47-22.583-4.587-21.524-27.876-46.225-52.929-74.101-74.453-7.057-5.293-8.822-14.82-4.587-22.583l12.703-59.986-32.11-18.702-45.872 40.932c-4.587 7.41-13.762 10.586-21.877 7.057-32.463-13.409-66.691-22.583-101.271-27.17-8.822-1.059-15.173-8.469-15.526-17.29l-19.054-58.222h-37.050l-19.054 58.222c0 8.822-6.704 16.232-15.526 17.29-34.933 4.587-69.161 13.409-101.624 26.817-8.116 3.176-17.29 0.353-21.524-7.057l-45.872-40.932-32.11 18.702 12.703 59.986c4.234 7.763 2.47 17.29-4.587 22.583-27.876 21.172-52.929 46.225-74.453 74.101-5.293 7.057-14.82 8.822-22.583 4.587l-60.339-12.703-18.702 32.11 40.932 45.872c7.41 4.587 10.586 13.762 7.057 21.877-13.409 32.463-22.583 66.691-27.17 101.271-1.059 8.822-8.469 15.173-17.29 15.173l-58.222 20.113v37.050l58.222 19.054c8.822 0 16.232 6.704 17.29 15.526 4.587 34.933 13.409 69.161 26.817 101.624 3.176 8.116 0.353 16.937-7.057 21.524l-40.932 45.872 18.702 32.11 60.339-12.703c7.763-4.234 17.29-2.47 22.583 4.587 21.524 27.876 46.225 52.929 74.101 74.453 7.057 5.293 8.822 14.82 4.587 22.583l-12.703 59.986 32.11 18.702 45.872-40.932c4.587-7.41 13.762-10.586 21.877-7.057 32.463 13.409 66.691 22.583 101.271 27.17 8.822 1.059 15.173 8.469 15.526 17.29l19.054 58.222h37.050l19.054-58.222c0-8.822 6.704-16.232 15.526-17.29 34.933-4.587 69.161-13.409 101.624-26.817 8.116-3.176 16.937-0.353 21.524 7.057l45.872 40.932 32.11-18.702-12.703-59.986c-4.234-7.763-2.47-17.29 4.587-22.583 27.876-21.524 52.929-46.225 74.453-74.101 5.293-7.057 14.82-8.822 22.583-4.587l60.339 12.703 18.702-32.11-40.932-45.872c-7.41-4.587-10.586-13.762-7.057-21.877 13.409-32.463 22.583-66.691 27.17-101.624 1.059-8.822 8.469-15.173 17.29-15.526l58.222-19.054v-37.403h-0.353z" />
<glyph unicode="&#xe011;" d="M799.503 97.139c0 14.739 12.223 26.962 26.962 26.962 5.033 0 8.987 3.954 8.987 8.987s-3.954 8.987-8.987 8.987c-24.805 0-44.936-20.131-44.936-44.936 0-5.033 3.954-8.987 8.987-8.987s8.987 3.954 8.987 8.987zM428.511 154.298l84.48 140.56h349.423c7.19 0 14.020 4.314 16.536 11.144l143.795 359.489c2.157 5.392 1.438 11.144-1.438 16.177-2.876 4.673-7.909 7.909-13.661 8.628l-821.432 71.538-114.677 86.277c0 1.438 0.359 2.876 0.359 4.314 0 19.772-16.177 35.949-35.949 35.949s-35.949-16.177-35.949-35.949 16.177-35.949 35.949-35.949c5.033 0 9.706 1.078 14.020 2.876l114.317-85.918 141.998-425.994c2.516-7.19 9.347-12.223 16.896-12.223h148.109l-70.819-117.912c-12.223 6.471-26.243 10.066-40.982 10.066-49.609 0-89.872-40.263-89.872-89.872s40.263-89.872 89.872-89.872c43.498 0 79.806 30.916 88.075 71.898h291.186c8.268-40.982 44.577-71.898 88.075-71.898 49.609 0 89.872 40.263 89.872 89.872s-40.263 89.872-89.872 89.872c-43.498 0-79.806-30.916-88.075-71.898h-291.186c-3.235 14.38-10.066 27.681-19.053 38.825zM205.268 724.087l775.417-67.584-130.135-325.697h-514.069l-131.213 393.281zM826.464 151.062c29.838 0 53.923-24.086 53.923-53.923s-24.086-53.923-53.923-53.923c-29.838 0-53.923 24.086-53.923 53.923s24.086 53.923 53.923 53.923zM359.129 43.216c-29.838 0-53.923 24.086-53.923 53.923s24.086 53.923 53.923 53.923 53.923-24.086 53.923-53.923-24.086-53.923-53.923-53.923zM359.129 142.075c-24.805 0-44.936-20.131-44.936-44.936 0-5.033 3.954-8.987 8.987-8.987s8.987 3.954 8.987 8.987c0 14.739 12.223 26.962 26.962 26.962 5.033 0 8.987 3.954 8.987 8.987s-3.954 8.987-8.987 8.987zM539.593 651.111l-266.022 23.007c-2.876 0.359-6.111-1.078-7.909-3.235-1.797-2.516-2.516-5.392-1.438-8.268l57.518-172.555c1.078-3.595 4.673-6.111 8.628-6.111 1.078 0 1.797 0 2.876 0.359 4.673 1.438 7.19 6.83 5.752 11.504l-53.204 159.253 252.361-21.929c5.033-0.359 9.347 3.235 9.706 8.268 0.359 4.673-3.235 8.987-8.268 9.706z" />
<glyph unicode="&#xe012;" d="M488.275 429.010l-189.174 404.963c-4.914 10.237-16.788 14.741-27.025 9.827-170.338-79.437-277.209-252.232-271.886-440.177s122.021-354.598 296.863-423.798c55.687-22.111 114.241-33.167 173.614-33.167 125.706 0 244.042 49.136 332.896 137.99 8.189 8.189 8.189 20.883 0 29.072l-315.289 315.289zM471.077-12.805c-54.459 0-107.69 10.237-158.464 30.301-159.692 63.467-266.153 215.379-271.067 386.946-4.914 165.015 84.76 316.927 229.711 393.088l181.394-389.403c0.819-2.047 2.457-4.095 4.095-5.733l303.824-303.824c-79.437-71.657-181.394-111.375-289.493-111.375zM1016.897 539.975c-26.615 151.093-125.706 280.075-264.925 345.18-10.237 4.914-22.521 0.409-27.025-9.827l-190.402-408.238c-3.685-7.78-2.047-17.198 4.095-22.93l318.565-318.565c3.685-3.685 9.008-6.142 14.331-6.142s10.646 2.047 14.331 6.142c108.509 108.099 157.645 263.287 131.029 414.38zM871.126 168.999l-293.588 293.588 175.252 376.3c117.517-61.829 200.229-174.433 223.159-305.872 23.749-131.439-15.56-266.153-104.823-364.016zM702.426 907.267c-120.793 56.097-260.011 56.097-380.804 0l190.402-408.238 190.402 408.238z" />
<glyph unicode="&#xe013;" d="M936.43 565.583c-35.31 35.31-77.683 60.734-124.292 74.858-1.059 78.742-32.132 152.188-87.57 207.625-56.497 56.497-132.061 87.57-212.568 87.57s-155.719-31.073-212.568-87.57c-55.437-55.437-86.157-129.236-87.57-207.978-46.61-14.124-88.982-39.548-124.292-74.858-56.497-56.143-87.57-131.708-87.57-212.215s31.073-155.719 87.57-212.568c56.497-56.497 132.061-87.57 212.568-87.57 9.887 0 17.655 7.768 17.655 17.655s-7.768 17.655-17.655 17.655c-146.185 0-264.828 118.643-264.828 264.828s118.643 264.828 264.828 264.828 264.828-118.643 264.828-264.828c0-9.887 7.768-17.655 17.655-17.655s17.655 7.768 17.655 17.655c0 165.606-134.532 300.138-300.138 300.138-3.178 0-6.709 0-9.887-0.353 15.537 117.583 115.818 206.919 235.873 206.919 4.943 0 8.828 3.884 8.828 8.828s-3.884 8.828-8.828 8.828c-130.295 0-238.698-97.81-253.881-225.633-8.474-0.706-16.596-1.766-24.717-3.178 6.709 140.182 122.88 251.763 264.474 251.763s257.766-111.934 264.474-251.763c-17.302 3.178-34.604 4.59-52.612 4.59-9.887 0-17.655-7.768-17.655-17.655s7.768-17.655 17.655-17.655c146.185 0 264.828-118.643 264.828-264.828s-118.643-264.828-264.828-264.828c-9.887 0-17.655-7.768-17.655-17.655s7.768-17.655 17.655-17.655c80.508 0 155.719 31.073 212.568 87.57 56.497 56.497 87.57 132.061 87.57 212.568s-31.073 156.072-87.57 212.568zM314.262 594.891c-140.888 0-255.647-114.759-255.647-255.647 0-4.943 3.884-8.828 8.828-8.828s8.828 3.884 8.828 8.828c0 131.354 106.99 237.992 237.992 237.992 4.943 0 8.828 3.884 8.828 8.828s-3.884 8.828-8.828 8.828zM627.112 167.989l-164.193-164.193-66.030 64.971c-7.062 6.709-18.008 6.709-25.070-0.353-6.709-7.062-6.709-18.008 0.353-25.070l78.742-77.33c0.353-0.353 1.059-0.706 1.412-1.412 0.353-0.353 0.706-0.706 1.059-1.059 0.706-0.353 1.412-0.706 2.119-1.059 0.353-0.353 0.706-0.353 1.059-0.706 0.706-0.353 1.412-0.353 2.472-0.706 0.353 0 0.706-0.353 1.059-0.353 1.059-0.353 2.119-0.353 3.178-0.353v0 0c1.059 0 2.119 0 3.531 0.353 0.353 0 0.706 0.353 1.059 0.353 0.706 0.353 1.412 0.353 2.472 0.706 0.353 0 0.706 0.353 1.059 0.706 0.706 0.353 1.412 0.706 1.766 1.059s0.706 0.706 1.059 1.059c0.353 0.353 1.059 0.706 1.412 1.059v0 0 0l176.552 176.552c7.062 7.062 7.062 18.008 0 25.070-7.062 7.415-18.361 7.415-25.070 0.706z" />
<glyph unicode="&#xe014;" d="M936.43 519.327c-35.31 35.31-77.683 60.734-124.292 74.858-1.059 78.742-32.132 152.188-87.57 207.625-56.497 56.497-132.061 87.57-212.568 87.57s-155.719-31.073-212.568-87.57c-55.437-55.79-86.157-129.236-87.57-207.978-46.61-14.124-88.982-39.548-124.292-74.858-56.497-56.497-87.57-131.708-87.57-212.215s31.073-155.719 87.57-212.568c56.497-56.497 132.061-87.57 212.568-87.57h423.724c80.508 0 155.719 31.073 212.568 87.57 56.497 56.497 87.57 132.061 87.57 212.568s-31.073 155.719-87.57 212.568zM723.862 41.931h-423.724c-146.185 0-264.828 118.643-264.828 264.828s118.643 264.828 264.828 264.828 264.828-118.643 264.828-264.828c0-9.887 7.768-17.655 17.655-17.655s17.655 7.768 17.655 17.655c0 165.606-134.532 300.138-300.138 300.138-3.178 0-6.709 0-9.887-0.353 15.537 117.23 115.818 206.919 235.873 206.919 4.943 0 8.828 3.884 8.828 8.828s-3.884 8.828-8.828 8.828c-129.942 0-238.698-97.81-253.881-225.633-8.474-0.706-16.596-1.766-24.717-3.178 6.709 139.829 122.88 251.763 264.474 251.763s257.766-111.934 264.474-251.763c-17.302 3.178-34.957 4.59-52.612 4.59-9.887 0-17.655-7.768-17.655-17.655s7.768-17.655 17.655-17.655c146.185 0 264.828-118.643 264.828-264.828s-118.643-264.828-264.828-264.828zM314.262 548.281c-140.888 0-255.647-114.759-255.647-255.647 0-4.943 3.884-8.828 8.828-8.828s8.828 3.884 8.828 8.828c0 131.354 106.99 237.992 237.992 237.992 4.943 0 8.828 3.884 8.828 8.828s-3.884 8.828-8.828 8.828z" />
<glyph unicode="&#xe015;" d="M883.451 588.549c-77.503 0-140.549-63.046-140.549-140.549s63.046-140.549 140.549-140.549 140.549 63.046 140.549 140.549-63.046 140.549-140.549 140.549zM883.451 347.608c-55.416 0-100.392 44.976-100.392 100.392s44.976 100.392 100.392 100.392c55.416 0 100.392-44.976 100.392-100.392s-44.976-100.392-100.392-100.392zM883.451 518.275c-38.551 0-70.275-31.724-70.275-70.275 0-5.622 4.417-10.039 10.039-10.039s10.039 4.417 10.039 10.039c0 27.708 22.488 50.196 50.196 50.196 5.622 0 10.039 4.417 10.039 10.039s-4.417 10.039-10.039 10.039zM512 588.549c-77.503 0-140.549-63.046-140.549-140.549s63.046-140.549 140.549-140.549 140.549 63.046 140.549 140.549-63.046 140.549-140.549 140.549zM512 347.608c-55.416 0-100.392 44.976-100.392 100.392s44.976 100.392 100.392 100.392 100.392-44.976 100.392-100.392-44.976-100.392-100.392-100.392zM512 518.275c-38.551 0-70.275-31.724-70.275-70.275 0-5.622 4.417-10.039 10.039-10.039s10.039 4.417 10.039 10.039c0 27.708 22.488 50.196 50.196 50.196 5.622 0 10.039 4.417 10.039 10.039s-4.417 10.039-10.039 10.039zM140.549 588.549c-77.503 0-140.549-63.046-140.549-140.549s63.046-140.549 140.549-140.549 140.549 63.046 140.549 140.549-63.046 140.549-140.549 140.549zM140.549 347.608c-55.416 0-100.392 44.976-100.392 100.392s44.976 100.392 100.392 100.392 100.392-44.976 100.392-100.392-44.976-100.392-100.392-100.392zM140.549 518.275c-38.551 0-70.275-31.724-70.275-70.275 0-5.622 4.417-10.039 10.039-10.039s10.039 4.417 10.039 10.039c0 27.708 22.488 50.196 50.196 50.196 5.622 0 10.039 4.417 10.039 10.039s-4.417 10.039-10.039 10.039z" />
<glyph unicode="&#xe016;" d="M778.835 676.541c2.119 0 3.885 0.706 5.651 2.119 3.885 3.179 4.238 8.83 1.060 12.362-68.165 81.233-168.47 128.206-274.425 128.206s-206.261-46.974-274.779-128.206c-3.179-3.885-2.472-9.183 1.060-12.362 3.885-3.179 9.183-2.825 12.362 1.060 64.986 77.348 159.993 121.849 261.004 121.849s196.018-44.501 261.004-121.849c2.119-2.119 4.591-3.179 7.064-3.179zM143.807 363.265l111.254 169.529c3.532 5.298 3.885 12.362 0.706 18.012s-9.183 9.183-15.54 9.183h-94.654c31.787 147.278 151.517 263.477 300.561 289.612 179.065 31.434 354.245-69.578 416.406-240.52 3.179-9.183 13.421-13.774 22.604-10.596s13.774 13.421 10.596 22.604c-68.165 186.835-259.592 297.736-455.61 263.123-82.645-13.774-157.521-52.625-216.856-111.254-58.629-57.922-98.186-131.385-113.726-211.912 0-0.353 0-0.353 0-0.706h-91.828c-6.357 0-12.362-3.532-15.54-9.183s-2.825-12.715 0.706-18.012l111.254-169.529c3.179-4.945 8.83-8.123 14.834-8.123s11.655 2.825 14.834 7.77zM50.566 525.024h157.168l-78.407-119.73-78.76 119.73zM252.235 216.34c-3.179 3.885-8.83 4.238-12.362 1.060-3.885-3.179-4.238-8.83-1.060-12.362 68.165-81.233 168.47-128.206 274.425-128.206s206.261 46.621 274.425 128.206c3.179 3.885 2.825 9.183-1.060 12.362s-9.183 2.825-12.362-1.060c-64.986-77.348-159.993-121.849-261.004-121.849s-196.018 44.501-261.004 121.849zM1020.768 364.324l-110.547 168.47c-3.179 4.945-8.83 8.123-14.834 8.123s-11.655-2.825-14.834-8.123l-111.254-169.529c-3.532-5.298-3.885-12.362-0.706-18.012s9.183-9.183 15.54-9.183h94.654c-31.787-147.278-151.517-263.477-300.561-289.612-179.065-31.434-354.245 69.578-416.406 240.52-3.179 9.183-13.421 13.774-22.604 10.596s-13.774-13.421-10.596-22.604c59.688-164.231 214.384-269.481 383.913-269.481 23.663 0 47.68 2.119 71.697 6.357 82.292 14.481 157.168 53.331 216.503 111.96 58.629 57.922 98.186 131.385 113.726 211.912 0 0.353 0 0.353 0 0.706h91.828c9.889 0 17.659 7.77 17.659 17.659 0.353 3.532-1.060 7.064-3.179 10.242zM816.626 371.035l78.407 119.73 78.407-119.73h-156.815z" />
<glyph unicode="&#xe017;" d="M936.43 589.771c-35.31 35.31-77.683 60.734-124.292 74.858-1.059 78.742-32.132 152.188-87.57 207.625-56.85 56.497-132.061 87.57-212.568 87.57s-155.719-31.073-212.568-87.57c-55.437-55.437-86.157-129.236-87.57-207.625-46.61-14.124-88.982-39.548-124.292-74.858-56.497-56.497-87.57-132.061-87.57-212.568s31.073-155.719 87.57-212.568c56.497-56.497 132.061-87.57 212.568-87.57 9.887 0 17.655 7.768 17.655 17.655s-7.768 17.655-17.655 17.655c-146.185 0-264.828 118.643-264.828 264.828s118.643 264.828 264.828 264.828 264.828-118.643 264.828-264.828c0-9.887 7.768-17.655 17.655-17.655s17.655 7.768 17.655 17.655c0 165.606-134.532 300.138-300.138 300.138-3.178 0-6.709 0-9.887-0.353 15.537 117.583 115.818 206.919 235.873 206.919 4.943 0 8.828 3.884 8.828 8.828s-3.884 8.828-8.828 8.828c-130.295 0-238.698-97.81-253.881-225.633-8.474-0.706-16.596-1.766-24.717-3.178 6.709 140.182 122.88 251.763 264.474 251.763s257.766-111.934 264.474-251.763c-17.302 3.178-34.604 4.59-52.612 4.59-9.887 0-17.655-7.768-17.655-17.655s7.768-17.655 17.655-17.655c146.185 0 264.828-118.643 264.828-264.828s-118.643-264.828-264.828-264.828c-9.887 0-17.655-7.768-17.655-17.655s7.768-17.655 17.655-17.655c80.508 0 155.719 31.073 212.568 87.57 56.497 56.497 87.57 132.061 87.57 212.568s-31.073 156.072-87.57 212.568zM314.262 619.079c-140.888 0-255.647-114.759-255.647-255.647 0-4.943 3.884-8.828 8.828-8.828s8.828 3.884 8.828 8.828c0 131.354 106.99 237.992 237.992 237.992 4.943 0 8.828 3.884 8.828 8.828s-3.884 8.828-8.828 8.828zM608.044 38.93l-78.389-52.259v284.601c0 9.887-7.768 17.655-17.655 17.655s-17.655-7.768-17.655-17.655v-284.954l-78.389 52.259c-8.121 5.297-19.068 3.178-24.364-4.943s-3.178-19.068 4.943-24.364l105.578-70.268h0.353c0.706-0.353 1.059-0.706 1.766-1.059 0.353 0 0.353-0.353 0.706-0.353 0 0 0.353 0 0.353-0.353 0.353 0 0.706-0.353 1.059-0.353s0.706-0.353 1.059-0.353 0.706 0 0.706-0.353c0.353 0 0.353 0 0.706 0s0.706 0 0.706 0c0.706 0 1.412 0 2.119 0v0 0 0 0c0.706 0 1.412 0 2.119 0 0.353 0 0.706 0 0.706 0 0.353 0 0.353 0 0.706 0s0.706 0 0.706 0.353c0.353 0 0.706 0.353 1.059 0.353s0.706 0.353 1.059 0.353c0 0 0.353 0 0.353 0.353 0.353 0 0.353 0.353 0.706 0.353 0.706 0.353 1.059 0.706 1.766 1.059h0.353l105.578 70.268c8.121 5.297 10.24 16.243 4.943 24.364s-15.537 10.593-23.658 5.297z" />
<glyph unicode="&#xe018;" d="M891.259 201.481h-94.815v493.037h94.815c73.197 0 132.741 59.544 132.741 132.741s-59.544 132.741-132.741 132.741-132.741-59.544-132.741-132.741v-94.815h-493.037v94.815c0 73.197-59.544 132.741-132.741 132.741s-132.741-59.544-132.741-132.741 59.544-132.741 132.741-132.741h94.815v-493.037h-94.815c-73.197 0-132.741-59.544-132.741-132.741s59.544-132.741 132.741-132.741 132.741 59.544 132.741 132.741v94.815h493.037v-94.815c0-73.197 59.544-132.741 132.741-132.741s132.741 59.544 132.741 132.741-59.544 132.741-132.741 132.741zM796.444 827.259c0 52.338 42.477 94.815 94.815 94.815s94.815-42.477 94.815-94.815-42.477-94.815-94.815-94.815h-94.815v94.815zM227.556 68.741c0-52.338-42.477-94.815-94.815-94.815s-94.815 42.477-94.815 94.815 42.477 94.815 94.815 94.815h94.815v-94.815zM227.556 732.444h-94.815c-52.338 0-94.815 42.477-94.815 94.815s42.477 94.815 94.815 94.815 94.815-42.477 94.815-94.815v-94.815zM758.519 201.481h-493.037v493.037h493.037v-493.037zM891.259-26.074c-52.338 0-94.815 42.477-94.815 94.815v94.815h94.815c52.338 0 94.815-42.477 94.815-94.815s-42.477-94.815-94.815-94.815zM66.37 68.741c0-5.31 4.172-9.481 9.481-9.481s9.481 4.172 9.481 9.481c0 26.169 21.239 47.407 47.407 47.407 5.31 0 9.481 4.172 9.481 9.481s-4.172 9.481-9.481 9.481c-36.409 0-66.37-29.961-66.37-66.37zM132.741 893.63c-36.409 0-66.37-29.961-66.37-66.37 0-5.31 4.172-9.481 9.481-9.481s9.481 4.172 9.481 9.481c0 26.169 21.239 47.407 47.407 47.407 5.31 0 9.481 4.172 9.481 9.481s-4.172 9.481-9.481 9.481zM900.741 884.148c0 5.31-4.172 9.481-9.481 9.481-36.409 0-66.37-29.961-66.37-66.37 0-5.31 4.172-9.481 9.481-9.481s9.481 4.172 9.481 9.481c0 26.169 21.239 47.407 47.407 47.407 5.31 0 9.481 4.172 9.481 9.481zM891.259 135.111c-36.409 0-66.37-29.961-66.37-66.37 0-5.31 4.172-9.481 9.481-9.481s9.481 4.172 9.481 9.481c0 26.169 21.239 47.407 47.407 47.407 5.31 0 9.481 4.172 9.481 9.481s-4.172 9.481-9.481 9.481z" />
<glyph unicode="&#xe019;" d="M1006.345 41.931h-128.177l-278.599 905.71c-2.472 7.415-9.181 12.359-16.949 12.359h-141.241c-7.768 0-14.477-4.943-16.949-12.359l-278.599-905.71h-128.177c-9.887 0-17.655-7.768-17.655-17.655v-70.621c0-9.887 7.768-17.655 17.655-17.655h988.69c9.887 0 17.655 7.768 17.655 17.655v70.621c0 9.887-7.768 17.655-17.655 17.655zM402.891 756.966h218.218l48.728-158.897h-316.028l49.081 158.897zM348.513 580.414h326.974l48.728-158.897h-424.783l49.081 158.897zM294.135 403.862h435.73l48.728-158.897h-533.186l48.728 158.897zM239.757 227.31h544.486l48.728-158.897h-641.942l48.728 158.897zM454.444 924.69h115.112l46.257-150.069h-207.625l46.257 150.069zM988.69-28.69h-953.379v35.31h123.586c7.768 0 14.477 4.943 16.949 12.359l9.887 31.779h652.888l9.887-31.779c2.119-7.415 9.181-12.359 16.949-12.359h123.586v-35.31h-0.353z" />
<glyph unicode="&#xe01a;" d="M1024 836.414c0 9.887-7.768 17.655-17.655 17.655h-547.31v52.966c0 9.887-7.768 17.655-17.655 17.655h-282.483c-9.887 0-17.655-7.768-17.655-17.655v-52.966h-123.586c-9.887 0-17.655-7.768-17.655-17.655v-141.241c0-0.706 0-1.059 0-1.766l70.621-706.207c1.059-9.181 8.474-15.89 17.655-15.89h847.448c9.181 0 16.596 6.709 17.655 15.89l70.621 706.207c0 0.706 0 1.059 0 1.766v0 141.241zM158.897 818.759c9.887 0 17.655 7.768 17.655 17.655v52.966h247.172v-52.966c0-9.887 7.768-17.655 17.655-17.655h547.31v-105.931h-953.379v105.931h123.586zM919.834 6.621h-815.669l-67.090 670.897h949.495l-66.737-670.897zM88.276 636.91h847.448c4.943 0 8.828 3.884 8.828 8.828s-3.884 8.828-8.828 8.828h-847.448c-4.943 0-8.828-3.884-8.828-8.828s3.884-8.828 8.828-8.828zM208.331 813.462c4.943 0 8.828 3.884 8.828 8.828v26.483h97.103c4.943 0 8.828 3.884 8.828 8.828s-3.884 8.828-8.828 8.828h-105.931c-4.943 0-8.828-3.884-8.828-8.828v-35.31c0-4.943 3.884-8.828 8.828-8.828z" />
<glyph unicode="&#xe01b;" d="M512 960c-282.483 0-512-229.517-512-512s229.517-512 512-512 512 229.517 512 512-229.517 512-512 512zM512-28.69c-262.709 0-476.69 213.981-476.69 476.69s213.981 476.69 476.69 476.69 476.69-213.981 476.69-476.69-213.981-476.69-476.69-476.69zM370.759 748.138c-48.728 0-88.276-39.548-88.276-88.276v-423.724c0-48.728 39.548-88.276 88.276-88.276s88.276 39.548 88.276 88.276v423.724c0 48.728-39.548 88.276-88.276 88.276zM423.724 236.138c0-29.308-23.658-52.966-52.966-52.966s-52.966 23.658-52.966 52.966v423.724c0 29.308 23.658 52.966 52.966 52.966s52.966-23.658 52.966-52.966v-423.724zM653.241 748.138c-48.728 0-88.276-39.548-88.276-88.276v-423.724c0-48.728 39.548-88.276 88.276-88.276s88.276 39.548 88.276 88.276v423.724c0 48.728-39.548 88.276-88.276 88.276zM706.207 236.138c0-29.308-23.658-52.966-52.966-52.966s-52.966 23.658-52.966 52.966v423.724c0 29.308 23.658 52.966 52.966 52.966s52.966-23.658 52.966-52.966v-423.724zM349.572 668.69c-4.943 0-8.828-3.884-8.828-8.828v-423.724c0-4.943 3.884-8.828 8.828-8.828s8.828 3.884 8.828 8.828v423.724c0 4.943-3.884 8.828-8.828 8.828zM632.055 668.69c-4.943 0-8.828-3.884-8.828-8.828v-423.724c0-4.943 3.884-8.828 8.828-8.828s8.828 3.884 8.828 8.828v423.724c0 4.943-3.884 8.828-8.828 8.828z" />
<glyph unicode="&#xe01c;" d="M936.43 801.81c-56.497 56.497-132.061 87.57-212.568 87.57h-423.724c-80.508 0-155.719-31.073-212.568-87.57-56.497-56.85-87.57-132.061-87.57-212.568s31.073-155.719 87.57-212.568c52.612-52.259 121.114-82.979 194.913-87.217v-265.181c0-6.709 3.884-12.712 9.534-15.89 2.472-1.412 5.297-1.766 8.121-1.766 3.531 0 7.415 1.059 10.24 3.531l383.823 278.952h29.661c80.508 0 155.719 31.073 212.568 87.57 56.497 56.497 87.57 132.061 87.57 212.568s-31.073 155.719-87.57 212.568zM723.862 324.414h-35.31c-3.884 0-7.415-1.059-10.24-3.531l-360.519-262.003v247.879c0 9.887-7.768 17.655-17.655 17.655-146.185 0-264.828 118.643-264.828 264.828s118.643 264.828 264.828 264.828h423.724c146.185 0 264.828-118.643 264.828-264.828s-118.643-264.828-264.828-264.828zM308.966 818.759c0 4.943-3.884 8.828-8.828 8.828-131.354 0-238.345-106.99-238.345-238.345 0-4.943 3.884-8.828 8.828-8.828s8.828 3.884 8.828 8.828c0 121.821 98.869 220.69 220.69 220.69 4.943 0 8.828 3.884 8.828 8.828zM264.828 677.517c-48.728 0-88.276-39.548-88.276-88.276s39.548-88.276 88.276-88.276 88.276 39.548 88.276 88.276-39.548 88.276-88.276 88.276zM264.828 536.276c-29.308 0-52.966 23.658-52.966 52.966s23.658 52.966 52.966 52.966 52.966-23.658 52.966-52.966-23.658-52.966-52.966-52.966zM512 677.517c-48.728 0-88.276-39.548-88.276-88.276s39.548-88.276 88.276-88.276 88.276 39.548 88.276 88.276-39.548 88.276-88.276 88.276zM512 536.276c-29.308 0-52.966 23.658-52.966 52.966s23.658 52.966 52.966 52.966 52.966-23.658 52.966-52.966-23.658-52.966-52.966-52.966zM759.172 677.517c-48.728 0-88.276-39.548-88.276-88.276s39.548-88.276 88.276-88.276c48.728 0 88.276 39.548 88.276 88.276s-39.548 88.276-88.276 88.276zM759.172 536.276c-29.308 0-52.966 23.658-52.966 52.966s23.658 52.966 52.966 52.966 52.966-23.658 52.966-52.966-23.658-52.966-52.966-52.966z" />
<glyph unicode="&#xe01d;" d="M935.724 818.759h-847.448c-48.728 0-88.276-39.548-88.276-88.276v-564.966c0-48.728 39.548-88.276 88.276-88.276h847.448c48.728 0 88.276 39.548 88.276 88.276v564.966c0 48.728-39.548 88.276-88.276 88.276zM35.31 606.897h953.379v-141.241h-953.379v141.241zM88.276 783.448h847.448c29.308 0 52.966-23.658 52.966-52.966v-88.276h-953.379v88.276c0 29.308 23.658 52.966 52.966 52.966zM935.724 112.552h-847.448c-29.308 0-52.966 23.658-52.966 52.966v264.828h953.379v-264.828c0-29.308-23.658-52.966-52.966-52.966zM900.414 183.172h-211.862c-9.887 0-17.655-7.768-17.655-17.655s7.768-17.655 17.655-17.655h211.862c9.887 0 17.655 7.768 17.655 17.655s-7.768 17.655-17.655 17.655zM617.931 183.172h-211.862c-9.887 0-17.655-7.768-17.655-17.655s7.768-17.655 17.655-17.655h211.862c9.887 0 17.655 7.768 17.655 17.655s-7.768 17.655-17.655 17.655zM88.276 721.655h847.448c4.943 0 8.828 3.884 8.828 8.828s-3.884 8.828-8.828 8.828h-847.448c-4.943 0-8.828-3.884-8.828-8.828s3.884-8.828 8.828-8.828zM900.414 253.793h-494.345c-9.887 0-17.655-7.768-17.655-17.655s7.768-17.655 17.655-17.655h494.345c9.887 0 17.655 7.768 17.655 17.655s-7.768 17.655-17.655 17.655z" />
<glyph unicode="&#xe01e;" d="M935.724 889.379h-52.966v52.966c0 9.887-7.768 17.655-17.655 17.655s-17.655-7.768-17.655-17.655v-52.966h-141.241v52.966c0 9.887-7.768 17.655-17.655 17.655s-17.655-7.768-17.655-17.655v-52.966h-141.241v52.966c0 9.887-7.768 17.655-17.655 17.655s-17.655-7.768-17.655-17.655v-52.966h-141.241v52.966c0 9.887-7.768 17.655-17.655 17.655s-17.655-7.768-17.655-17.655v-52.966h-141.241v52.966c0 9.887-7.768 17.655-17.655 17.655s-17.655-7.768-17.655-17.655v-52.966h-52.966c-48.728 0-88.276-39.901-88.276-88.276v-776.828c0-48.728 39.548-88.276 88.276-88.276h847.448c48.728 0 88.276 39.548 88.276 88.276v776.828c0 48.375-39.548 88.276-88.276 88.276zM88.276 854.069h52.966v-52.966c0-9.887 7.768-17.655 17.655-17.655s17.655 7.768 17.655 17.655v52.966h141.241v-52.966c0-9.887 7.768-17.655 17.655-17.655s17.655 7.768 17.655 17.655v52.966h141.241v-52.966c0-9.887 7.768-17.655 17.655-17.655s17.655 7.768 17.655 17.655v52.966h141.241v-52.966c0-9.887 7.768-17.655 17.655-17.655s17.655 7.768 17.655 17.655v52.966h141.241v-52.966c0-9.887 7.768-17.655 17.655-17.655s17.655 7.768 17.655 17.655v52.966h52.966c29.308 0 52.966-23.658 52.966-52.966v-158.897h-953.379v158.897c0 28.954 23.658 52.966 52.966 52.966zM935.724-28.69h-847.448c-29.308 0-52.966 23.658-52.966 52.966v582.621h953.379v-582.621c0-29.308-23.658-52.966-52.966-52.966zM353.103 77.241c58.262 0 105.931 47.669 105.931 105.931v247.172c0 58.262-47.669 105.931-105.931 105.931s-105.931-47.669-105.931-105.931v-247.172c0-58.615 47.669-105.931 105.931-105.931zM282.483 430.345c0 38.841 31.779 70.621 70.621 70.621s70.621-31.779 70.621-70.621v-247.172c0-38.841-31.779-70.621-70.621-70.621s-70.621 31.779-70.621 70.621v247.172zM582.621 112.552c-9.887 0-17.655-7.768-17.655-17.655s7.768-17.655 17.655-17.655h176.552c9.887 0 17.655 7.768 17.655 17.655s-7.768 17.655-17.655 17.655h-52.966v406.069c0 1.059 0 2.472-0.353 3.531 0 0.353-0.353 1.059-0.353 1.412 0 0.706-0.353 1.059-0.706 1.766s-0.706 1.059-1.059 1.766c-0.353 0.353-0.353 1.059-0.706 1.412-1.412 1.766-2.825 3.531-4.943 4.943-0.353 0.353-1.059 0.353-1.412 0.706-0.706 0.353-1.059 0.706-1.766 1.059s-1.059 0.353-1.766 0.706c-0.353 0-1.059 0.353-1.412 0.353-1.059 0.353-2.119 0.353-3.178 0.353v0 0c-1.059 0-2.119 0-3.178-0.353-0.706 0-1.059-0.353-1.412-0.353-0.706 0-1.059-0.353-1.766-0.706s-1.059-0.706-1.766-1.059c-0.353-0.353-1.059-0.353-1.412-0.706-1.059-0.706-1.766-1.412-2.825-2.119l-105.931-105.931c-7.062-7.062-7.062-18.008 0-25.070 3.531-3.531 8.121-5.297 12.359-5.297s9.181 1.766 12.359 5.297l75.917 75.917v-363.697h-88.276zM935.724 33.103h-847.448c-4.943 0-8.828-3.884-8.828-8.828s3.884-8.828 8.828-8.828h847.448c4.943 0 8.828 3.884 8.828 8.828s-3.884 8.828-8.828 8.828zM317.793 430.345c0 19.421 15.89 35.31 35.31 35.31 4.943 0 8.828 3.884 8.828 8.828s-3.884 8.828-8.828 8.828c-29.308 0-52.966-23.658-52.966-52.966 0-4.943 3.884-8.828 8.828-8.828s8.828 3.884 8.828 8.828zM88.276 686.345h847.448c4.943 0 8.828 3.884 8.828 8.828s-3.884 8.828-8.828 8.828h-847.448c-4.943 0-8.828-3.884-8.828-8.828s3.884-8.828 8.828-8.828z" />
<glyph unicode="&#xe01f;" d="M370.984 71.368c-36.357 2.471-105.895 11.295-163.078 43.77-44.123 25.062-99.541 68.125-110.836 106.6-1.412 4.589-6.354 7.413-10.942 6.001s-7.413-6.354-6.001-10.942c12.707-43.417 69.537-88.951 118.955-116.837 60.36-34.239 132.721-43.77 170.49-46.241 0.353 0 0.353 0 0.706 0 4.589 0 8.472 3.53 8.825 8.119 0.353 4.942-3.53 9.178-8.119 9.531zM965.758 553.895c37.769 37.416 57.889 79.421 57.889 123.544 0 73.067-54.712 140.84-154.606 190.61-95.658 47.653-222.378 74.126-357.218 74.126s-261.559-26.474-357.218-74.126c-99.894-49.77-154.606-117.543-154.606-190.61 0-44.123 20.12-86.481 58.242-123.897-37.769-37.416-57.889-80.127-58.242-123.191 0-37.416 14.472-73.42 42.005-106.6-0.706-0.706-1.412-1.059-1.765-1.765-26.474-32.827-40.24-67.42-40.24-103.424 0-73.067 54.712-140.84 154.606-190.61 95.658-48.006 222.731-74.126 357.218-74.126 134.839 0 261.559 26.474 357.218 74.126 99.541 49.77 154.606 117.543 154.606 190.61 0 36.004-13.413 70.596-39.887 103.424-0.706 0.706-1.412 1.412-1.765 2.118 27.533 32.827 42.005 68.831 42.005 106.248-0.353 43.064-20.473 85.775-58.242 123.544zM35.298 677.438c0 58.948 48.006 115.425 134.839 158.842 91.069 45.535 212.495 70.596 341.686 70.596s250.617-25.062 341.686-70.596c86.834-43.417 134.839-99.894 134.839-158.842s-48.006-115.425-134.839-158.842c-91.069-45.535-212.142-70.596-341.686-70.596-129.191 0-250.617 25.062-341.686 70.596-86.834 43.417-134.839 99.894-134.839 158.842zM83.657 528.833c0.353 0.353 0.706 1.059 1.059 1.412 20.12-15.531 43.417-30.003 69.89-43.417 95.658-48.006 222.731-74.126 357.218-74.126 134.839 0 261.559 26.474 357.218 74.126 26.827 13.413 50.123 27.886 70.243 43.77 0.353-0.353 0.706-1.059 1.059-1.412 31.415-31.062 48.006-65.302 48.006-98.835 0-58.948-48.006-115.425-134.839-158.842-91.069-45.535-212.142-70.596-341.686-70.596-129.191 0-250.617 25.062-341.686 70.596-86.834 43.417-134.839 99.894-134.839 158.842 0 33.533 16.943 67.772 48.358 98.482zM988.349 218.562c0-58.948-48.006-115.425-134.839-158.842-91.069-45.535-212.142-70.596-341.686-70.596-129.191 0-250.617 25.062-341.686 70.596-86.834 43.417-134.839 99.894-134.839 158.842 0 27.18 10.589 54.006 31.062 80.127 23.65-21.532 52.947-40.946 87.892-58.595 95.658-48.006 222.731-74.126 357.218-74.126 134.839 0 261.559 26.474 357.218 74.126 34.945 17.649 64.596 37.416 87.892 58.595 21.179-26.121 31.768-52.947 31.768-80.127zM199.082 311.749c60.36-34.239 132.721-43.77 170.49-46.241 0.353 0 0.353 0 0.706 0 4.589 0 8.472 3.53 8.825 8.119 0.353 4.942-3.53 9.178-8.119 9.531-36.357 2.471-105.895 11.295-163.078 43.77-44.123 25.062-99.541 68.125-110.836 106.6-1.412 4.589-6.354 7.413-10.942 6.001s-7.413-6.354-6.001-10.942c12.707-43.417 69.89-88.951 118.955-116.837z" />
<glyph unicode="&#xe020;" d="M520.828 889.379c0 4.943-3.884 8.828-8.828 8.828-33.898 0-61.793-27.895-61.793-61.793 0-4.943 3.884-8.828 8.828-8.828s8.828 3.884 8.828 8.828c0 24.364 19.774 44.138 44.138 44.138 4.943 0 8.828 3.884 8.828 8.828zM450.207 59.586c0-4.943 3.884-8.828 8.828-8.828s8.828 3.884 8.828 8.828c0 24.364 19.774 44.138 44.138 44.138 4.943 0 8.828 3.884 8.828 8.828s-3.884 8.828-8.828 8.828c-33.898 0-61.793-27.895-61.793-61.793zM61.793 59.586c0-4.943 3.884-8.828 8.828-8.828s8.828 3.884 8.828 8.828c0 24.364 19.774 44.138 44.138 44.138 4.943 0 8.828 3.884 8.828 8.828s-3.884 8.828-8.828 8.828c-33.898 0-61.793-27.895-61.793-61.793zM918.069 181.76v266.24c0 9.887-7.768 17.655-17.655 17.655h-370.759v248.585c59.674 8.474 105.931 60.028 105.931 122.174 0 68.149-55.437 123.586-123.586 123.586s-123.586-55.437-123.586-123.586c0-62.146 46.257-113.699 105.931-122.174v-248.585h-370.759c-9.887 0-17.655-7.768-17.655-17.655v-266.24c-59.674-8.474-105.931-60.028-105.931-122.174 0-68.149 55.437-123.586 123.586-123.586s123.586 55.437 123.586 123.586c0 62.146-46.257 113.699-105.931 122.174v248.585h353.103v-248.585c-59.674-8.474-105.931-60.028-105.931-122.174 0-68.149 55.437-123.586 123.586-123.586s123.586 55.437 123.586 123.586c0 62.146-46.257 113.699-105.931 122.174v248.585h353.103v-248.585c-59.674-8.474-105.931-60.028-105.931-122.174 0-68.149 55.437-123.586 123.586-123.586s123.586 55.437 123.586 123.586c0 62.146-46.257 113.699-105.931 122.174zM423.724 836.414c0 48.728 39.548 88.276 88.276 88.276s88.276-39.548 88.276-88.276-39.548-88.276-88.276-88.276-88.276 39.548-88.276 88.276zM211.862 59.586c0-48.728-39.548-88.276-88.276-88.276s-88.276 39.548-88.276 88.276c0 48.728 39.548 88.276 88.276 88.276s88.276-39.548 88.276-88.276zM600.276 59.586c0-48.728-39.548-88.276-88.276-88.276s-88.276 39.548-88.276 88.276c0 48.728 39.548 88.276 88.276 88.276s88.276-39.548 88.276-88.276zM900.414-28.69c-48.728 0-88.276 39.548-88.276 88.276s39.548 88.276 88.276 88.276c48.728 0 88.276-39.548 88.276-88.276s-39.548-88.276-88.276-88.276zM900.414 121.379c-33.898 0-61.793-27.895-61.793-61.793 0-4.943 3.884-8.828 8.828-8.828s8.828 3.884 8.828 8.828c0 24.364 19.774 44.138 44.138 44.138 4.943 0 8.828 3.884 8.828 8.828s-3.884 8.828-8.828 8.828z" />
<glyph unicode="&#xe021;" d="M512 960c-282.483 0-512-229.517-512-512s229.517-512 512-512 512 229.517 512 512-229.517 512-512 512zM512-28.69c-262.709 0-476.69 213.981-476.69 476.69s213.981 476.69 476.69 476.69 476.69-213.981 476.69-476.69-213.981-476.69-476.69-476.69zM534.952 875.255c0 4.943-3.884 8.828-8.828 8.828-248.232 0-450.207-201.975-450.207-450.207 0-4.943 3.884-8.828 8.828-8.828s8.828 3.884 8.828 8.828c0 238.345 194.207 432.552 432.552 432.552 4.943 0 8.828 3.884 8.828 8.828zM939.255 470.952c-4.943 0-8.828-3.884-8.828-8.828 0-238.345-194.207-432.552-432.552-432.552-4.943 0-8.828-3.884-8.828-8.828s3.884-8.828 8.828-8.828c248.232 0 450.207 201.975 450.207 450.207 0 4.943-3.884 8.828-8.828 8.828zM512.706 324.414c32.839 0 63.559 13.065 86.863 36.017 24.011 24.011 36.017 55.084 36.017 86.51 0 0.353 0.353 0.353 0.353 0.706l142.301 242.229c4.237 7.062 2.825 15.89-2.825 21.539s-14.477 6.709-21.539 2.825l-241.876-142.301c-0.353 0-0.353-0.353-0.353-0.353-32.839 0-63.559-13.065-86.863-36.017-24.011-24.011-36.017-55.437-36.017-86.863 0-0.353-0.353-0.353-0.353-0.706l-142.301-242.229c-4.237-7.062-2.825-15.89 2.825-21.539 3.531-3.531 7.768-5.297 12.359-5.297 3.178 0 6.003 0.706 8.828 2.472l242.229 142.301c0 0.353 0 0.706 0.353 0.706zM624.64 498.494c-6.003 13.418-14.477 25.777-25.423 36.723s-23.305 19.421-36.723 25.423l150.775 88.629-88.629-150.775zM449.501 510.499c16.596 16.596 38.841 25.777 62.499 25.777s45.903-9.181 62.499-25.777c34.251-34.251 34.251-90.394 0-124.999-16.596-16.596-38.841-25.777-62.499-25.777s-45.903 9.181-62.499 25.777c-34.251 34.604-34.251 90.394 0 124.999zM399.36 397.506c6.003-13.418 14.477-25.777 25.423-36.723s23.305-19.421 36.723-25.423l-150.775-88.629 88.629 150.775zM475.997 448c0 20.504 15.499 36.003 36.003 36.003 17.734 0 33.233-15.499 33.233-36.003 0-17.734-15.499-33.233-33.233-33.233-20.504 0-36.003 15.499-36.003 33.233z" />
<glyph unicode="&#xe022;" d="M935.724 960h-670.897c-48.728 0-88.276-39.548-88.276-88.276v-88.276h-88.276c-48.728 0-88.276-39.548-88.276-88.276v-670.897c0-48.728 39.548-88.276 88.276-88.276h670.897c48.728 0 88.276 39.548 88.276 88.276v88.276h88.276c48.728 0 88.276 39.548 88.276 88.276v670.897c0 48.728-39.548 88.276-88.276 88.276zM812.138 24.276c0-29.308-23.658-52.966-52.966-52.966h-670.897c-29.308 0-52.966 23.658-52.966 52.966v670.897c0 29.308 23.658 52.966 52.966 52.966h670.897c29.308 0 52.966-23.658 52.966-52.966v-670.897zM988.69 200.828c0-29.308-23.658-52.966-52.966-52.966h-88.276v547.31c0 48.728-39.548 88.276-88.276 88.276h-547.31v88.276c0 29.308 23.658 52.966 52.966 52.966h670.897c29.308 0 52.966-23.658 52.966-52.966v-670.897zM335.448 704h-247.172c-4.943 0-8.828-3.884-8.828-8.828v-247.172c0-4.943 3.884-8.828 8.828-8.828s8.828 3.884 8.828 8.828v238.345h238.345c4.943 0 8.828 3.884 8.828 8.828s-3.884 8.828-8.828 8.828zM759.172 280.276c-4.943 0-8.828-3.884-8.828-8.828v-238.345h-238.345c-4.943 0-8.828-3.884-8.828-8.828s3.884-8.828 8.828-8.828h247.172c4.943 0 8.828 3.884 8.828 8.828v247.172c0 4.943-3.884 8.828-8.828 8.828z" />
<glyph unicode="&#xe023;" d="M971.034 642.207h-19.421v88.276c0 48.728-39.548 88.276-88.276 88.276h-775.062c-48.728 0-88.276-39.548-88.276-88.276v-564.966c0-48.728 39.548-88.276 88.276-88.276h775.062c48.728 0 88.276 39.548 88.276 88.276v88.276h19.421c29.308 0 52.966 23.658 52.966 52.966v282.483c0 29.308-23.658 52.966-52.966 52.966zM916.303 165.517c0-29.308-23.658-52.966-52.966-52.966h-775.062c-29.308 0-52.966 23.658-52.966 52.966v564.966c0 29.308 23.658 52.966 52.966 52.966h775.062c29.308 0 52.966-23.658 52.966-52.966v-564.966zM988.69 306.759c0-9.887-7.768-17.655-17.655-17.655h-19.421v317.793h19.421c9.887 0 17.655-7.768 17.655-17.655v-282.483zM269.771 748.138h-151.128c-26.483 0-48.022-23.658-48.022-52.966v-494.345c0-29.308 21.539-52.966 48.022-52.966h151.481c26.483 0 48.022 23.658 48.022 52.966v494.345c-0.353 29.308-21.892 52.966-48.375 52.966zM282.483 200.828c0-9.534-5.65-17.655-12.712-17.655h-151.128c-6.709 0-12.712 8.121-12.712 17.655v494.345c0 9.534 5.65 17.655 12.712 17.655h151.481c6.709 0 12.712-8.121 12.712-17.655v-494.345h-0.353zM552.254 748.138h-151.481c-26.483 0-48.022-23.658-48.022-52.966v-494.345c0-29.308 21.539-52.966 48.022-52.966h151.481c26.483 0 48.022 23.658 48.022 52.966v494.345c0 29.308-21.539 52.966-48.022 52.966zM564.966 200.828c0-9.534-5.65-17.655-12.712-17.655h-151.481c-6.709 0-12.712 8.121-12.712 17.655v494.345c0 9.534 5.65 17.655 12.712 17.655h151.481c6.709 0 12.712-8.121 12.712-17.655v-494.345zM137.71 704c-4.943 0-8.828-3.884-8.828-8.828v-494.345c0-4.943 3.884-8.828 8.828-8.828s8.828 3.884 8.828 8.828v494.345c0 4.943-3.884 8.828-8.828 8.828zM420.193 704c-4.943 0-8.828-3.884-8.828-8.828v-494.345c0-4.943 3.884-8.828 8.828-8.828s8.828 3.884 8.828 8.828v494.345c0 4.943-3.884 8.828-8.828 8.828z" />
<glyph unicode="&#xe024;" d="M971.034 642.207h-19.421v88.276c0 48.728-39.548 88.276-88.276 88.276h-775.062c-48.728 0-88.276-39.548-88.276-88.276v-564.966c0-48.728 39.548-88.276 88.276-88.276h775.062c48.728 0 88.276 39.548 88.276 88.276v88.276h19.421c29.308 0 52.966 23.658 52.966 52.966v282.483c0 29.308-23.658 52.966-52.966 52.966zM916.303 165.517c0-29.308-23.658-52.966-52.966-52.966h-775.062c-29.308 0-52.966 23.658-52.966 52.966v564.966c0 29.308 23.658 52.966 52.966 52.966h775.062c29.308 0 52.966-23.658 52.966-52.966v-564.966zM988.69 306.759c0-9.887-7.768-17.655-17.655-17.655h-19.421v317.793h19.421c9.887 0 17.655-7.768 17.655-17.655v-282.483zM664.894 636.91c-7.062 7.062-18.008 7.062-25.070 0l-164.193-164.193-163.84 164.193c-7.062 7.062-18.008 7.062-25.070 0s-7.062-18.008 0-25.070l164.193-164.193-164.193-164.193c-7.062-7.062-7.062-18.008 0-25.070 3.531-3.531 8.121-5.297 12.359-5.297s9.181 1.766 12.359 5.297l164.193 164.193 164.193-164.193c3.531-3.531 8.121-5.297 12.359-5.297s9.181 1.766 12.359 5.297c7.062 7.062 7.062 18.008 0 25.070l-163.84 164.546 164.193 164.193c6.709 6.709 6.709 18.008 0 24.717z" />
<glyph unicode="&#xe025;" d="M803.31 610.428c-4.943 4.943-12.712 6.709-19.068 3.884-6.709-2.825-10.946-9.181-10.946-16.243v-82.273h-522.593v82.273c0 7.062-4.237 13.418-10.946 16.243s-14.124 1.059-19.068-3.884l-150.069-150.069c-7.062-7.062-7.062-18.008 0-25.070l150.069-149.716c3.531-3.531 7.768-5.297 12.359-5.297 2.119 0 4.59 0.353 6.709 1.412 6.709 2.825 10.946 9.181 10.946 16.243v82.273h522.593v-82.273c0-7.062 4.237-13.418 10.946-16.243s14.124-1.059 19.068 3.884l149.716 149.716c3.178 3.178 5.297 7.768 5.297 12.359s-1.766 9.181-5.297 12.359l-149.716 150.422zM808.607 341.010v57.203c0 4.59-1.766 9.181-5.297 12.359s-7.768 5.297-12.359 5.297h-557.903c-9.887 0-17.655-7.768-17.655-17.655v-57.203l-107.343 106.99 107.343 106.99v-57.203c0-4.59 1.766-9.181 5.297-12.359 3.178-3.178 7.768-5.297 12.359-5.297h557.903c9.887 0 17.655 7.768 17.655 17.655v57.203l107.343-107.343-107.343-106.637zM935.724 960h-847.448c-48.728 0-88.276-39.548-88.276-88.276v-847.448c0-48.728 39.548-88.276 88.276-88.276h847.448c48.728 0 88.276 39.548 88.276 88.276v847.448c0 48.728-39.548 88.276-88.276 88.276zM988.69 24.276c0-29.308-23.658-52.966-52.966-52.966h-847.448c-29.308 0-52.966 23.658-52.966 52.966v847.448c0 29.308 23.658 52.966 52.966 52.966h847.448c29.308 0 52.966-23.658 52.966-52.966v-847.448z" />
<glyph unicode="&#xe026;" d="M1019.497 459.654c-161.749 179.761-332.328 270.877-507.497 270.877s-345.748-91.116-507.497-270.877c-6.004-6.71-6.004-16.952 0-23.662 161.749-179.407 332.328-270.524 507.497-270.524s345.748 91.116 507.497 270.877c6.004 6.71 6.004 16.599 0 23.309zM512 200.785c-160.69 0-319.261 82.994-470.415 247.215 151.508 164.221 309.725 247.215 470.415 247.215s319.261-82.994 470.415-247.215c-151.154-164.221-309.725-247.215-470.415-247.215zM512 642.24c-107.009 0-194.24-87.232-194.24-194.24s87.232-194.24 194.24-194.24 194.24 87.232 194.24 194.24-87.232 194.24-194.24 194.24zM512 289.076c-87.585 0-158.924 71.339-158.924 158.924s71.339 158.924 158.924 158.924 158.924-71.339 158.924-158.924-71.339-158.924-158.924-158.924zM519.77 575.139c-0.353 4.944-4.944 8.476-9.889 7.77-72.046-7.77-128.199-65.689-133.496-137.734-0.353-4.944 3.178-9.182 8.123-9.535 0.353 0 0.353 0 0.706 0 4.591 0 8.476 3.532 8.829 8.123 4.944 63.57 54.387 114.778 117.957 121.842 4.944 0.353 8.476 4.944 7.77 9.535zM476.079 448c0 20.419 15.502 35.921 35.921 35.921 17.826 0 33.327-15.502 33.327-35.921 0-17.826-15.502-33.327-33.327-33.327-20.419 0-35.921 15.502-35.921 33.327z" />
<glyph unicode="&#xe027;" d="M512 960c-282.483 0-512-229.517-512-512s229.517-512 512-512 512 229.517 512 512-229.517 512-512 512zM512-28.69c-262.709 0-476.69 213.981-476.69 476.69s213.981 476.69 476.69 476.69 476.69-213.981 476.69-476.69-213.981-476.69-476.69-476.69zM794.483 642.207c-9.887 0-17.655-7.768-17.655-17.655v-112.64l-257.059 128.53c-5.65 2.825-12.006 2.472-17.302-0.706s-8.474-8.828-8.474-15.183v-112.64l-256.706 128.53c-5.297 2.825-12.006 2.472-17.302-0.706s-8.474-8.828-8.474-15.183v-353.103c0-6.003 3.178-11.652 8.474-15.183 2.825-1.766 6.003-2.472 9.181-2.472 2.825 0 5.297 0.706 7.768 1.766l257.059 128.53v-112.64c0-6.003 3.178-11.652 8.474-15.183 2.825-1.766 6.003-2.472 9.181-2.472 2.825 0 5.297 0.706 7.768 1.766l257.059 128.53v-112.64c0-9.887 7.768-17.655 17.655-17.655s17.655 7.768 17.655 17.655v353.103c0.353 9.887-7.415 17.655-17.302 17.655zM247.172 300.050v295.901l247.172-123.586v-48.728l-247.172-123.586zM529.655 300.050v295.901l247.172-123.586v-48.728l-247.172-123.586zM278.952 562.759c-4.943 0-8.828-3.884-8.828-8.828v-211.862c0-4.943 3.884-8.828 8.828-8.828s8.828 3.884 8.828 8.828v211.862c0 4.943-3.884 8.828-8.828 8.828zM561.434 562.759c-4.943 0-8.828-3.884-8.828-8.828v-211.862c0-4.943 3.884-8.828 8.828-8.828s8.828 3.884 8.828 8.828v211.862c0 4.943-3.884 8.828-8.828 8.828z" />
<glyph unicode="&#xe028;" d="M1021.129 740.318l-141.217 211.825c-3.53 4.943-8.826 7.767-14.828 7.767h-706.083c-6.002 0-11.297-2.824-14.828-7.767l-141.217-211.825c-3.883-5.649-3.883-13.416-0.353-19.417l494.258-776.691c3.177-4.943 8.826-8.12 14.828-8.12s11.65 3.177 14.828 8.12l494.258 776.691c4.236 6.002 4.236 13.416 0.353 19.417zM520.869 721.607h255.955l-255.955-717.027v717.027zM520.869 739.259v185.347h328.682l-66.372-185.347h-262.31zM503.217 739.259h-262.31l-66.372 185.347h328.682v-185.347zM503.217 721.607v-717.027l-255.955 717.027h255.955zM464.030 62.126l-419.766 659.481h183.935l235.832-659.481zM795.535 721.607h183.935l-419.413-659.481 235.479 659.481zM979.117 739.259h-177.227l61.782 172.99 115.445-172.99zM160.414 912.249l61.782-172.99h-177.227l115.445 172.99z" />
<glyph unicode="&#xe029;" d="M1022.979 571.034c-2.121 6.364-8.132 10.96-14.849 11.314l-350.365 23.334-130.459 343.294c-2.475 6.717-8.839 10.96-15.91 10.96v0c-7.071 0-13.435-4.243-15.91-10.96l-129.398-343.648-350.365-24.041c-6.717-0.354-12.728-4.95-14.849-11.667-2.121-6.364-0.354-13.788 4.95-18.031l271.17-235.816-86.265-358.85c-1.768-6.717 1.061-13.788 6.717-17.677 2.828-2.121 6.364-3.182 9.546-3.182s6.364 1.061 9.546 2.828l296.272 197.633 296.626-196.572c2.828-1.768 6.010-2.828 9.192-2.828v0c9.192 0 16.97 7.424 16.97 16.97 0 1.768-0.354 3.889-1.061 5.657l-87.326 357.082 270.463 236.523c5.657 4.243 7.778 11.314 5.303 17.677zM717.515 335.219c-4.596-4.243-6.717-10.606-5.303-16.617l79.902-326.677-270.11 179.248c-5.657 3.889-13.081 3.889-18.738 0l-269.756-179.955 78.841 326.677c1.414 6.010-0.707 12.728-5.303 16.617l-248.19 215.664 320.313 22.273c6.717 0.354 12.374 4.596 14.495 10.96l117.378 311.828 118.438-311.475c2.475-6.010 8.132-10.606 14.849-10.96l320.313-21.213-247.129-216.371zM515.286 809.678c-4.596 1.768-9.546-0.707-11.314-5.303l-80.255-212.128c-1.768-4.596 0.707-9.546 5.303-11.314 1.061-0.354 2.121-0.707 3.182-0.707 3.535 0 7.071 2.121 8.132 5.657l79.902 212.482c1.768 4.596-0.354 9.899-4.95 11.314z" />
<glyph unicode="&#xe02a;" d="M933.235 735.494c-0.352 0.352-0.352 0.352-0.704 0.704-35.541 51.728-80.583 96.77-132.311 132.311-0.352 0.352-0.352 0.352-0.704 0.704-84.454 59.469-184.038 90.788-287.494 90.788s-203.041-31.318-287.494-90.788c-0.352-0.352-0.352-0.352-0.704-0.704-52.080-35.541-96.77-80.231-132.663-132.311-0.352-0.352-0.352-0.352-0.704-0.704-120.346-172.074-120.346-402.914 0.352-574.988 0.352-0.352 0.352-0.352 0.704-0.704 35.541-51.728 80.583-96.77 132.311-132.311 0.352-0.352 0.352-0.352 0.704-0.704 84.805-59.469 184.038-90.788 287.494-90.788s203.041 31.318 287.494 90.788c0.352 0.352 0.352 0.352 0.704 0.704 51.728 35.541 96.77 80.583 132.311 132.311 0.352 0.352 0.352 0.352 0.704 0.704 120.698 172.074 120.698 402.914 0 574.988zM512.022-27.052c-96.066 0-185.446 28.503-260.047 77.768l60.525 86.213c59.469-39.412 128.088-60.173 199.522-60.173s140.404 20.762 199.522 60.173l60.525-86.213c-74.601-49.265-163.981-77.768-260.047-77.768zM512.022 113.704c-184.39 0-334.296 149.905-334.296 334.296s149.905 334.296 334.296 334.296 334.296-149.905 334.296-334.296-149.905-334.296-334.296-334.296zM36.971 448c0 96.066 28.503 185.446 77.768 260.047l86.213-60.525c-79.879-120.346-79.879-278.697 0-399.395l-86.213-60.525c-49.265 74.953-77.768 164.333-77.768 260.399zM512.022 923.052c96.066 0 185.446-28.503 260.047-77.768l-60.525-86.213c-59.469 39.412-128.088 60.173-199.522 60.173s-140.404-20.762-199.522-60.173l-60.525 86.213c74.601 49.265 163.981 77.768 260.047 77.768zM823.093 647.522l86.213 60.525c49.265-74.601 77.768-163.981 77.768-260.047s-28.503-185.446-77.768-260.047l-86.213 60.525c79.879 120.346 79.879 278.697 0 399.043zM899.453 722.474l-86.565-60.525c-23.929 33.43-53.487 62.988-86.917 86.917l60.525 86.565c43.634-30.966 81.99-69.322 112.957-112.957zM237.548 835.431l60.525-86.565c-33.43-23.929-62.988-53.487-86.917-86.917l-86.565 60.525c30.966 43.634 69.322 81.99 112.957 112.957zM124.591 173.526l86.565 60.525c23.929-33.43 53.487-62.988 86.917-86.917l-60.525-86.565c-43.634 30.966-81.99 69.322-112.957 112.957zM786.497 60.569l-60.525 86.565c33.43 23.929 62.988 53.487 86.917 86.917l86.565-60.525c-30.966-43.634-69.322-81.99-112.957-112.957z" />
<glyph unicode="&#xe02b;" d="M819.997 652.003c0 169.942-138.055 307.997-307.997 307.997s-307.997-138.055-307.997-307.997c0-93.849 42.395-178.276 109.067-234.803l36.235-310.896c5.435-45.656 34.423-79.355 73.557-86.964 3.623-28.263 15.943-46.743 26.814-57.614 16.668-16.668 38.771-25.727 62.686-25.727 40.946 0 82.616 28.626 89.5 83.34 38.771 7.609 68.122 41.308 73.557 86.964l36.235 310.896c65.948 56.889 108.343 140.954 108.343 234.803zM240.238 652.003c0 150.013 121.749 271.762 271.762 271.762s271.762-121.749 271.762-271.762c0-125.373-85.515-231.541-201.466-262.341 36.96 47.83 96.747 136.243 83.34 192.045-5.073 20.654-23.553 43.12-44.931 43.12-12.32 0-22.466-10.508-31.887-21.016-5.798-6.522-14.132-15.219-18.842-15.219-5.073 0-15.581 9.059-22.828 15.943-11.958 10.508-23.19 20.292-35.148 20.292s-23.19-9.783-35.148-20.292c-7.609-6.522-17.755-15.943-22.828-15.943-4.711 0-12.682 8.696-18.842 15.219-9.421 10.508-19.567 21.016-31.887 21.016-21.379 0-40.221-22.466-44.931-43.12-13.045-55.802 46.381-144.215 83.34-192.045-115.952 31.162-201.466 136.968-201.466 262.341zM469.605 383.864c-39.134 47.83-105.444 142.766-93.486 193.857 3.261 13.769 15.581 29.35 27.539 29.35 4.711 0 12.682-8.696 18.842-15.219 9.421-10.508 19.567-21.016 31.887-21.016 11.958 0 23.19 9.783 35.148 20.292 7.609 6.522 17.755 15.943 22.828 15.943s15.581-9.059 22.828-15.943c11.958-10.508 23.19-20.292 35.148-20.292 12.32 0 22.466 10.508 31.887 21.016 5.798 6.522 14.132 15.219 18.842 15.219 11.595 0 24.277-15.581 27.539-29.35 13.045-55.439-62.686-155.448-93.849-193.857-13.769-2.174-27.901-3.261-42.395-3.261-14.856-0.362-28.988 1.087-42.757 3.261zM512-27.403c-22.828 0-46.018 14.132-52.541 45.294h105.081c-6.522-30.8-29.713-45.294-52.541-45.294zM638.822 110.653c-3.261-27.176-21.379-56.527-54.352-56.527h-144.94c-32.974 0-51.454 29.35-54.352 56.527l-32.249 277.922c46.381-28.263 101.096-44.569 159.434-44.569s112.691 16.306 159.434 44.569l-32.974-277.922zM330.825 679.179c5.073 0 9.059 3.986 9.059 9.059 0 75.006 60.875 135.881 135.881 135.881 5.073 0 9.059 3.986 9.059 9.059s-3.986 9.059-9.059 9.059c-84.79 0-153.999-69.209-153.999-153.999 0-4.711 3.986-9.059 9.059-9.059zM580.484 189.282l-144.94-72.47c-4.348-2.174-6.16-7.609-3.986-12.32 1.449-3.261 4.711-5.073 7.972-5.073 1.449 0 2.899 0.362 3.986 1.087l144.94 72.47c4.348 2.174 6.16 7.609 3.986 12.32-2.174 4.348-7.609 6.16-11.958 3.986zM580.484 261.752l-144.94-72.47c-4.348-2.174-6.16-7.609-3.986-12.32 1.449-3.261 4.711-5.073 7.972-5.073 1.449 0 2.899 0.362 3.986 1.087l144.94 72.47c4.348 2.174 6.16 7.609 3.986 12.32-2.174 4.348-7.609 6.16-11.958 3.986zM431.558 249.432c1.449-3.261 4.711-5.073 7.972-5.073 1.449 0 2.899 0.362 3.986 1.087l144.94 72.47c4.348 2.174 6.16 7.609 3.986 12.32-2.174 4.348-7.609 6.16-12.32 3.986l-144.94-72.47c-4.348-2.174-6.16-7.609-3.623-12.32z" />
<glyph unicode="&#xe02c;" d="M935.724 836.414h-158.897v88.276c0 9.887-7.768 17.655-17.655 17.655h-494.345c-9.887 0-17.655-7.768-17.655-17.655v-88.276h-158.897c-48.728 0-88.276-39.548-88.276-88.276s39.548-88.276 88.276-88.276h19.421l68.855-620.050c5.65-50.847 42.019-86.157 88.276-86.157h494.345c46.257 0 82.626 35.663 88.276 86.157l68.855 620.050h19.421c48.728 0 88.276 39.548 88.276 88.276s-39.548 88.276-88.276 88.276zM282.483 907.034h459.034v-70.621h-459.034v70.621zM812.138 44.050c-2.825-26.483-20.833-55.084-52.966-55.084h-494.345c-32.132 0-50.141 28.601-52.966 55.084l-68.502 615.812h737.28l-68.502-615.812zM935.724 695.172h-847.448c-29.308 0-52.966 23.658-52.966 52.966s23.658 52.966 52.966 52.966h847.448c29.308 0 52.966-23.658 52.966-52.966s-23.658-52.966-52.966-52.966zM335.448 33.103c4.943 0 8.828 3.884 8.828 8.828v529.655c0 4.943-3.884 8.828-8.828 8.828s-8.828-3.884-8.828-8.828v-529.655c0-4.943 3.884-8.828 8.828-8.828zM688.552 33.103c4.943 0 8.828 3.884 8.828 8.828v529.655c0 4.943-3.884 8.828-8.828 8.828s-8.828-3.884-8.828-8.828v-529.655c0-4.943 3.884-8.828 8.828-8.828zM512 33.103c4.943 0 8.828 3.884 8.828 8.828v529.655c0 4.943-3.884 8.828-8.828 8.828s-8.828-3.884-8.828-8.828v-529.655c0-4.943 3.884-8.828 8.828-8.828zM95.338 785.214c-24.364 0-44.138-19.774-44.138-44.138 0-4.943 3.884-8.828 8.828-8.828s8.828 3.884 8.828 8.828c0 14.477 12.006 26.483 26.483 26.483 4.943 0 8.828 3.884 8.828 8.828s-3.884 8.828-8.828 8.828zM963.972 764.028c-4.943 0-8.828-3.884-8.828-8.828 0-14.477-12.006-26.483-26.483-26.483-4.943 0-8.828-3.884-8.828-8.828s3.884-8.828 8.828-8.828c24.364 0 44.138 19.774 44.138 44.138 0 4.943-3.884 8.828-8.828 8.828z" />
<glyph unicode="&#xe02d;" d="M971.034 642.207h-19.421v88.276c0 48.728-39.548 88.276-88.276 88.276h-775.062c-48.728 0-88.276-39.548-88.276-88.276v-564.966c0-48.728 39.548-88.276 88.276-88.276h775.062c48.728 0 88.276 39.548 88.276 88.276v88.276h19.421c29.308 0 52.966 23.658 52.966 52.966v282.483c0 29.308-23.658 52.966-52.966 52.966zM916.303 165.517c0-29.308-23.658-52.966-52.966-52.966h-775.062c-29.308 0-52.966 23.658-52.966 52.966v564.966c0 29.308 23.658 52.966 52.966 52.966h775.062c29.308 0 52.966-23.658 52.966-52.966v-564.966zM988.69 306.759c0-9.887-7.768-17.655-17.655-17.655h-19.421v317.793h19.421c9.887 0 17.655-7.768 17.655-17.655v-282.483zM839.68 356.193l-352.044 317.087c-5.297 4.59-12.712 6.003-19.068 3.178s-10.593-9.181-10.593-16.243v-155.012l-331.917 66.383c-7.768 1.412-15.537-2.119-19.068-9.534s-1.766-15.89 3.884-21.186l353.103-317.793c3.178-2.825 7.415-4.59 11.652-4.59 2.472 0 4.943 0.353 7.062 1.412 6.356 2.825 10.593 9.181 10.593 16.243v155.012l331.917-66.383c1.412-0.353 2.472-0.353 3.884-0.353 9.534 0 17.302 8.121 17.302 17.655 0.353 5.65-2.472 10.593-6.709 14.124zM479.161 429.992c-5.297 1.059-10.593-0.353-14.83-3.531-4.237-3.531-6.356-8.474-6.356-13.771v-137.004l-275.774 248.232 289.898-57.909c5.297-1.059 10.593 0.353 14.83 3.531s6.356 8.474 6.356 13.771v137.004l275.774-248.232-289.898 57.909zM506.35 546.869l176.552-141.241c1.766-1.412 3.531-1.766 5.65-1.766 2.472 0 5.297 1.059 7.062 3.178 3.178 3.884 2.472 9.534-1.412 12.359l-176.552 141.241c-3.884 3.178-9.534 2.472-12.359-1.412-3.178-3.531-2.472-9.181 1.059-12.359zM447.029 349.131l-176.552 141.241c-3.884 3.178-9.534 2.472-12.359-1.412-3.178-3.884-2.472-9.534 1.412-12.359l176.552-141.241c1.766-1.412 3.531-1.766 5.65-1.766 2.472 0 5.297 1.059 7.062 3.178 2.472 3.531 1.766 9.181-1.766 12.359z" />
<glyph unicode="&#xe02e;" d="M992.958 838.85l-90.114 90.114c-19.978 19.978-46.757 31.030-75.237 31.030s-55.259-11.052-75.237-31.030l-270.343-270.343c-41.232-41.232-41.232-108.817 0-150.474l30.18-30.18-30.18-30.18-30.18 30.18c-19.978 19.978-46.757 31.030-75.237 31.030s-55.259-11.052-75.237-31.030l-270.343-270.343c-19.978-19.978-31.030-46.757-31.030-75.237s11.052-55.259 31.030-75.237l90.114-90.114c19.978-19.978 46.757-31.030 75.237-31.030s55.259 11.052 75.237 31.030l270.343 270.343c19.978 19.978 31.030 46.757 31.030 75.237s-11.052 55.259-31.030 75.237l-30.18 30.18 30.18 30.18 30.18-30.18c19.978-19.978 46.757-31.030 75.237-31.030s55.259 11.052 75.237 31.030l270.343 270.343c19.978 19.978 31.030 46.757 31.030 75.237 0.425 28.48-10.627 55.259-31.030 75.237zM512.206 358.098c11.902-11.902 18.703-28.054 18.703-45.057s-6.801-33.155-18.703-45.057l-270.343-270.343c-11.902-11.902-28.054-18.703-45.057-18.703s-33.155 6.801-45.057 18.703l-90.114 90.114c-11.902 11.902-18.703 28.054-18.703 45.057s6.801 33.155 18.703 45.057l270.343 270.343c11.902 11.902 28.054 18.703 45.057 18.703s33.155-6.801 45.057-18.703l30.18-30.18-104.992-104.992c-8.501-8.501-8.501-21.678 0-30.18 4.251-4.251 9.777-6.376 14.877-6.376 5.526 0 11.052 2.125 14.877 6.376l104.992 104.992 30.18-29.755zM963.203 718.555l-270.768-270.343c-11.902-11.902-28.054-18.703-45.057-18.703s-33.155 6.801-45.057 18.703l-30.18 30.18 104.992 104.992c8.501 8.501 8.501 21.678 0 30.18s-21.678 8.501-30.18 0l-104.992-104.992-30.18 30.18c-24.654 24.654-24.654 65.46 0 90.114l270.343 270.343c11.902 11.902 28.054 18.703 45.057 18.703s33.155-6.801 45.057-18.703l90.114-90.114c11.902-11.902 18.703-28.054 18.703-45.057 0.85-17.428-5.951-33.155-17.853-45.482zM174.278 200.398c-4.251 4.251-11.052 4.251-14.877 0l-59.935-59.935c-2.125-2.125-2.975-4.676-2.975-7.651s1.275-5.526 2.975-7.651l59.935-59.935c2.125-2.125 4.676-2.975 7.651-2.975s5.526 0.85 7.651 2.975c4.251 4.251 4.251 11.052 0 14.877l-52.708 52.708 52.708 52.708c3.401 3.826 3.401 10.627-0.425 14.877zM865.437 831.623c-4.251 4.251-11.052 4.251-14.877 0-4.251-4.251-4.251-11.052 0-14.877l52.708-52.708-52.708-52.708c-4.251-4.251-4.251-11.052 0-14.877 2.125-2.125 4.676-2.975 7.651-2.975s5.526 0.85 7.651 2.975l59.935 59.935c4.251 4.251 4.251 11.052 0 14.877l-60.36 60.36z" />
<glyph unicode="&#xe02f;" d="M1006.345 606.897c-9.887 0-17.655-7.768-17.655-17.655v-564.966c0-29.308-23.658-52.966-52.966-52.966h-847.448c-29.308 0-52.966 23.658-52.966 52.966v847.448c0 29.308 23.658 52.966 52.966 52.966h564.966c9.887 0 17.655 7.768 17.655 17.655s-7.768 17.655-17.655 17.655h-564.966c-48.728 0-88.276-39.548-88.276-88.276v-847.448c0-48.728 39.548-88.276 88.276-88.276h847.448c48.728 0 88.276 39.548 88.276 88.276v564.966c0 9.534-8.121 17.655-17.655 17.655zM1023.647 945.876c0 0.353-0.353 1.059-0.353 1.412 0 0.706-0.353 1.059-0.706 1.766s-0.706 1.059-1.059 1.766c-0.353 0.353-0.353 1.059-0.706 1.412-1.412 1.766-2.825 3.531-4.943 4.943-0.353 0.353-1.059 0.353-1.412 0.706-0.706 0.353-1.059 0.706-1.766 1.059s-1.059 0.353-1.766 0.706c-0.353 0-1.059 0.353-1.412 0.353-1.059-0.353-2.119 0-3.178 0v0h-247.172c-9.887 0-17.655-7.768-17.655-17.655s7.768-17.655 17.655-17.655h204.447l-640.883-640.883c-7.062-7.062-7.062-18.008 0-25.070 3.531-3.531 8.121-5.297 12.359-5.297s9.181 1.766 12.359 5.297l641.236 640.883v-204.447c0-9.887 7.768-17.655 17.655-17.655s17.655 7.768 17.655 17.655v247.172c0 1.059-0.353 2.119-0.353 3.531zM88.276 880.552c-4.943 0-8.828-3.884-8.828-8.828v-247.172c0-4.943 3.884-8.828 8.828-8.828s8.828 3.884 8.828 8.828v238.345h238.345c4.943 0 8.828 3.884 8.828 8.828s-3.884 8.828-8.828 8.828h-247.172z" />
<glyph unicode="&#xe030;" d="M137.142 960c-70.582 0-128-57.418-128-128s57.416-128 128-128c70.582 0 128 57.418 128 128 0 70.584-57.418 128-128 128zM137.142 740.573c-50.469 0-91.429 40.96-91.429 91.429s40.96 91.429 91.429 91.429 91.429-40.96 91.429-91.429-40.96-91.429-91.429-91.429zM146.285 886.858c0-5.12-4.022-9.142-9.142-9.142-25.234 0-45.714-20.48-45.714-45.714 0-4.754-4.022-9.142-9.142-9.142s-9.142 4.022-9.142 9.142c0 35.109 28.891 64 64 64 5.118-0.002 9.141-4.024 9.141-9.144zM137.142 576c-70.582 0-128-57.418-128-128s57.416-128 128-128c70.582 0 128 57.418 128 128 0 70.584-57.418 128-128 128zM137.142 356.571c-50.469 0-91.429 40.96-91.429 91.429s40.96 91.429 91.429 91.429 91.429-40.96 91.429-91.429-40.96-91.429-91.429-91.429zM146.285 502.858c0-5.12-4.022-9.142-9.142-9.142-25.234 0-45.714-20.48-45.714-45.714 0-4.754-4.022-9.142-9.142-9.142s-9.142 4.022-9.142 9.142c0 35.109 28.891 64 64 64 5.118-0.002 9.141-4.024 9.141-9.144zM137.142 192c-70.582 0-128-57.418-128-128s57.416-128 128-128c70.582 0 128 57.418 128 128 0 70.584-57.418 128-128 128zM137.142-27.429c-50.469 0-91.429 40.96-91.429 91.429s40.96 91.429 91.429 91.429 91.429-40.96 91.429-91.429-40.96-91.429-91.429-91.429zM146.285 118.858c0-5.12-4.022-9.142-9.142-9.142-25.234 0-45.714-20.48-45.714-45.714 0-4.754-4.022-9.142-9.142-9.142s-9.142 4.022-9.142 9.142c0 35.109 28.891 64 64 64 5.118-0.002 9.141-4.024 9.141-9.144zM448 704h438.858c70.582 0 128 57.418 128 128s-57.418 128-128 128h-438.858c-70.582 0-128-57.418-128-128s57.418-128 128-128zM448 923.429h438.858c50.469 0 91.429-40.96 91.429-91.429s-40.96-91.429-91.429-91.429h-438.858c-50.469 0-91.429 40.96-91.429 91.429s40.96 91.429 91.429 91.429zM886.858 576h-438.858c-70.582 0-128-57.418-128-128s57.418-128 128-128h438.858c70.582 0 128 57.418 128 128 0 70.584-57.418 128-128 128zM886.858 356.573h-438.858c-50.469 0-91.429 40.96-91.429 91.429s40.96 91.429 91.429 91.429v0h438.858c50.469 0 91.429-40.96 91.429-91.429s-40.96-91.429-91.429-91.429zM886.858 192h-438.858c-70.582 0-128-57.418-128-128s57.418-128 128-128h438.858c70.582 0 128 57.418 128 128 0 70.584-57.418 128-128 128zM886.858-27.429h-438.858c-50.469 0-91.429 40.96-91.429 91.429s40.96 91.429 91.429 91.429h438.858c50.469 0 91.429-40.96 91.429-91.429s-40.96-91.429-91.429-91.429zM384 832c0 35.109 28.891 64 64 64 5.12 0 9.142-4.022 9.142-9.142s-4.022-9.142-9.142-9.142c-25.234 0-45.714-20.48-45.714-45.714 0-4.754-4.022-9.142-9.142-9.142s-9.144 4.021-9.144 9.141zM457.142 502.858c0-5.12-4.022-9.142-9.142-9.142-25.234 0-45.714-20.48-45.714-45.714 0-4.755-4.022-9.142-9.142-9.142s-9.144 4.021-9.144 9.141c0 35.109 28.891 64 64 64 5.12 0 9.142-4.022 9.142-9.142zM457.142 118.858c0-5.12-4.022-9.142-9.142-9.142-25.234 0-45.714-20.48-45.714-45.714 0-4.754-4.022-9.142-9.142-9.142s-9.142 4.022-9.142 9.142c0 35.109 28.891 64 64 64 5.118-0.002 9.141-4.024 9.141-9.144zM950.858 64c0-35.109-28.891-64-64-64-5.12 0-9.142 4.022-9.142 9.142s4.022 9.142 9.142 9.142c25.234 0 45.714 20.48 45.714 45.714 0 5.12 4.022 9.142 9.142 9.142s9.144-4.021 9.144-9.141zM877.714 777.144c0 5.12 4.022 9.142 9.142 9.142 25.234 0 45.714 20.48 45.714 45.714 0 5.12 4.022 9.142 9.142 9.142s9.142-4.022 9.142-9.142c0-35.109-28.891-64-64-64-5.117 0-9.141 4.024-9.141 9.144zM950.858 448c0-35.109-28.891-64-64-64-5.12 0-9.142 4.022-9.142 9.142s4.022 9.142 9.142 9.142c25.234 0 45.714 20.48 45.714 45.714 0 5.12 4.022 9.142 9.142 9.142s9.144-4.021 9.144-9.141z" />
<glyph unicode="&#xe031;" d="M935.724 571.586h-88.276v52.966c0 185.026-150.422 335.448-335.448 335.448s-335.448-150.422-335.448-335.448v-52.966h-88.276c-48.728 0-88.276-39.548-88.276-88.276v-459.034c0-48.728 39.548-88.276 88.276-88.276h847.448c48.728 0 88.276 39.548 88.276 88.276v459.034c0 48.728-39.548 88.276-88.276 88.276zM211.862 624.552c0 165.606 134.532 300.138 300.138 300.138s300.138-134.532 300.138-300.138v-52.966h-600.276v52.966zM988.69 24.276c0-29.308-23.658-52.966-52.966-52.966h-847.448c-29.308 0-52.966 23.658-52.966 52.966v459.034c0 29.308 23.658 52.966 52.966 52.966h847.448c29.308 0 52.966-23.658 52.966-52.966v-459.034zM512 465.655c-50.847 0-97.103-31.779-115.465-79.448-17.302-45.55-6.356-96.397 26.836-127.117v-128.883c0-31.426 16.949-60.734 44.138-76.623 13.418-7.768 28.601-11.652 44.138-11.652s30.72 4.237 44.138 11.652c27.189 15.89 44.138 44.844 44.138 76.27v128.883c33.192 30.72 44.491 81.567 26.836 127.117-17.655 48.022-63.912 79.801-114.759 79.801zM572.028 281.335c-4.237-3.178-6.709-8.474-6.709-14.124v-137.357c0-18.714-10.24-36.37-26.483-45.903-16.243-9.181-36.723-9.181-52.966 0-16.243 9.534-26.483 26.836-26.483 45.903v137.357c0 5.297-2.472 10.593-6.709 14.124-26.13 20.48-35.663 58.262-22.599 92.513 13.065 33.898 46.257 56.497 82.273 56.497s69.561-22.599 82.273-56.497c12.712-34.251 3.531-72.033-22.599-92.513zM229.517 492.138h-141.241c-4.943 0-8.828-3.884-8.828-8.828v-141.241c0-4.943 3.884-8.828 8.828-8.828s8.828 3.884 8.828 8.828v132.414h132.414c4.943 0 8.828 3.884 8.828 8.828s-3.884 8.828-8.828 8.828z" />
<glyph unicode="&#xe032;" d="M935.724 571.636h-88.276v52.966c0 9.887-7.768 17.655-17.655 17.655s-17.655-7.768-17.655-17.655v-52.966h-600.276v52.966c0 118.29 69.561 225.633 177.611 274.008s234.461 28.601 322.737-50.141c7.415-6.356 18.361-6.003 25.070 1.412 6.356 7.415 6.003 18.361-1.412 25.070-98.516 87.57-240.11 109.815-360.872 55.79-120.408-53.672-198.444-174.080-198.444-306.141v-52.966h-88.276c-48.728 0-88.276-39.548-88.276-88.276v-459.034c0-48.728 39.548-88.276 88.276-88.276h847.448c48.728 0 88.276 39.548 88.276 88.276v459.034c0 48.728-39.548 88.276-88.276 88.276zM988.69 24.326c0-29.308-23.658-52.966-52.966-52.966h-847.448c-29.308 0-52.966 23.658-52.966 52.966v459.034c0 29.308 23.658 52.966 52.966 52.966h847.448c29.308 0 52.966-23.658 52.966-52.966v-459.034zM512 465.705c-50.847 0-97.103-31.779-115.465-79.448-17.302-45.55-6.356-96.397 26.836-127.117v-128.883c0-31.426 16.949-60.734 44.138-76.623 13.418-7.768 28.601-11.652 44.138-11.652s30.72 4.237 44.138 11.652c27.189 15.89 44.138 44.844 44.138 76.27v128.883c33.192 30.72 44.491 81.567 26.836 127.117-17.655 48.022-63.912 79.801-114.759 79.801zM572.028 281.385c-4.237-3.178-6.709-8.474-6.709-14.124v-137.357c0-18.714-10.24-36.37-26.483-45.903-16.243-9.181-36.723-9.181-52.966 0-16.243 9.534-26.483 26.836-26.483 45.903v137.357c0 5.297-2.472 10.593-6.709 14.124-26.13 20.48-35.663 58.262-22.599 92.513 13.065 33.898 46.257 56.497 82.273 56.497 36.37 0 69.561-22.599 82.273-56.497 12.712-34.251 3.531-72.033-22.599-92.513zM229.517 492.188h-141.241c-4.943 0-8.828-3.884-8.828-8.828v-141.241c0-4.943 3.884-8.828 8.828-8.828s8.828 3.884 8.828 8.828v132.414h132.414c4.943 0 8.828 3.884 8.828 8.828s-3.884 8.828-8.828 8.828z" />
<glyph unicode="&#xe033;" d="M450.164 60.025c0-4.947 3.887-8.834 8.834-8.834s8.834 3.887 8.834 8.834c0 24.381 19.787 44.168 44.168 44.168 4.947 0 8.834 3.887 8.834 8.834s-3.887 8.834-8.834 8.834c-33.921 0-61.836-27.914-61.836-61.836zM989.019 731.384c0 68.196-55.476 123.671-123.671 123.671s-123.671-55.476-123.671-123.671c0-62.189 45.935-113.778 106.004-122.258-3.533-186.214-68.903-201.055-158.653-221.902-50.882-11.66-107.771-24.734-159.006-70.669v433.557h88.337c9.187 0 16.607 7.42 16.607 16.607 0 3.533-1.060 7.067-3.18 9.54l-105.651 175.614c-2.827 4.947-8.48 8.127-14.134 8.127s-11.307-3.18-14.134-8.127l-106.004-176.674c-3.18-4.947-3.18-11.307-0.353-16.607s8.48-8.48 14.487-8.48h88.337v-539.914c-51.235 45.935-108.124 59.009-159.006 70.669-89.397 20.494-154.766 35.688-158.653 220.489h70.316c19.434 0 35.335 15.901 35.335 35.335v176.674c0 19.434-15.901 35.335-35.335 35.335h-176.674c-19.434 0-35.335-15.901-35.335-35.335v-176.674c0-19.434 15.901-35.335 35.335-35.335h71.023c4.594-213.068 92.93-233.562 186.214-255.117 50.882-11.66 103.177-23.674 149.466-68.196-50.882-15.194-88.337-62.542-88.337-118.371 0-68.196 55.476-123.671 123.671-123.671s123.671 55.476 123.671 123.671c0 62.189-46.288 113.778-106.004 122.258v83.39c50.529 60.069 109.538 73.85 167.133 86.923 93.637 21.554 181.974 42.048 186.214 256.177 59.362 8.834 105.651 60.422 105.651 122.965zM512 911.238l77.030-128.265h-153.706l76.676 128.265zM70.316 713.717h176.674v-176.674h-176.674v176.674zM600.337 60.025c0-48.762-39.575-88.337-88.337-88.337s-88.337 39.575-88.337 88.337c0 48.762 39.575 88.337 88.337 88.337s88.337-39.575 88.337-88.337zM865.347 643.048c-48.762 0-88.337 39.575-88.337 88.337s39.575 88.337 88.337 88.337 88.337-39.575 88.337-88.337-39.575-88.337-88.337-88.337zM865.347 793.22c-33.921 0-61.836-27.914-61.836-61.836 0-4.947 3.887-8.834 8.834-8.834s8.834 3.887 8.834 8.834c0 24.381 19.787 44.168 44.168 44.168 4.947 0 8.834 3.887 8.834 8.834s-3.887 8.834-8.834 8.834zM516.594 866.010c-4.24 2.473-9.54 1.413-12.014-2.827l-35.335-56.536c-2.473-4.24-1.413-9.54 2.827-12.014 1.413-1.060 3.18-1.413 4.594-1.413 2.827 0 5.654 1.413 7.42 4.24l35.335 56.536c2.827 3.887 1.413 9.54-2.827 12.014zM165.72 697.816h-70.669c-4.947 0-8.834-3.887-8.834-8.834v-70.669c0-4.947 3.887-8.834 8.834-8.834s8.834 3.887 8.834 8.834v61.836h61.836c4.947 0 8.834 3.887 8.834 8.834s-3.887 8.834-8.834 8.834z" />
</font>
</defs>
</svg>
